<svg id="Capa_1" data-name="Capa 1" xmlns="http://www.w3.org/2000/svg" viewBox="0 0 357.4 275"><defs><style>.cls-1{fill:none;}.cls-2{fill:#bf2c2c;}</style></defs><title>depositphotos_5054836-stock-illustration-template-sign-construction</title><polygon class="cls-1" points="81.7 173.5 52.2 162.5 52.2 172.5 81.7 183.5 81.7 173.5"/><rect class="cls-1" x="116" y="70" width="8" height="77.6"/><polygon class="cls-1" points="81.7 233.5 52.2 222.5 52.2 232.5 81.7 243.5 81.7 233.5"/><polygon class="cls-1" points="81.7 213.5 52.2 202.5 52.2 212.5 81.7 223.5 81.7 213.5"/><polygon class="cls-1" points="81.7 193.5 52.2 182.5 52.2 192.5 81.7 203.5 81.7 193.5"/><polygon class="cls-1" points="224 66 248 66 248 53 252 53 252 22 85 64 224 64 224 66"/><rect class="cls-1" x="110" y="241" width="14" height="15"/><rect class="cls-1" x="161" y="241" width="16" height="15"/><rect class="cls-1" x="192" y="70" width="28" height="9"/><polygon class="cls-1" points="260 67 301 67 301 64 329.5 64 256 22 256 53 260 53 260 67"/><polygon class="cls-1" points="81.7 253.5 52.2 242.5 52.2 252.5 81.7 263.5 81.7 253.5"/><polygon class="cls-1" points="12 225 40 212 40 201 12 214 12 225"/><polygon class="cls-1" points="12 245 40 232 40 221 12 234 12 245"/><polygon class="cls-1" points="12 205 40 192 40 181 12 194 12 205"/><rect class="cls-1" x="133" y="241" width="7" height="15"/><polygon class="cls-1" points="81.7 153.5 52.2 142.5 52.2 152.5 81.7 163.5 81.7 153.5"/><polygon class="cls-1" points="12 265 40 252 40 241 12 254 12 265"/><polygon class="cls-1" points="12 145 40 132 40 121 12 134 12 145"/><polygon class="cls-1" points="81.7 133.5 52.2 122.5 52.2 132.5 81.7 143.5 81.7 133.5"/><polygon class="cls-1" points="12 165 40 152 40 141 12 154 12 165"/><polygon class="cls-1" points="12 185 40 172 40 161 12 174 12 185"/><polygon class="cls-2" points="260 247 260 230 248 235 248 247 231 247 231 215 220 215 220 187 209 187 209 215 195 215 195 275 275.5 275 275.3 246.7 260 247"/><path class="cls-2" d="M188.3,285.5h-16v-5h-21v5h-7v-25h-9v25h-14v-25h-8v67h84v-67h-9Zm-53,23h-14v-15h14Zm16,0h-7v-15h7Zm37,0h-16v-15h16Z" transform="translate(-11.3 -52.5)"/><rect class="cls-2" x="326.8" y="175" width="30.6" height="100"/><rect class="cls-2" x="314.1" y="175" width="8.1" height="100"/><path class="cls-2" d="M11.3,183.5v144h90v-148l-44.6-17Zm40,121-28,13v-11l28-13Zm0-20-28,13v-11l28-13Zm0-20-28,13v-11l28-13Zm0-20-28,13v-11l28-13Zm0-20-28,13v-11l28-13Zm0-20-28,13v-11l28-13Zm0-20-28,13v-11l28-13ZM63.5,175,93,186v10L63.5,185Zm0,20L93,206v10L63.5,205Zm0,20L93,226v10L63.5,225Zm0,20L93,246v10L63.5,245Zm0,20L93,266v10L63.5,265Zm0,20L93,286v10L63.5,285Zm0,20L93,306v10L63.5,305Z" transform="translate(-11.3 -52.5)"/><rect class="cls-2" x="306" y="175" width="4.1" height="100"/><rect class="cls-2" x="296.5" y="175" width="4.7" height="100"/><rect class="cls-2" x="283.7" y="175" width="8.1" height="100"/><polygon class="cls-2" points="248 229.3 260 224.3 260 214.3 248 219.3 248 229.3"/><polygon class="cls-2" points="260 198.7 248 203.7 248 213.7 260 208.7 260 198.7"/><polygon class="cls-2" points="260 183 248 188 248 198 260 193 260 183"/><polygon class="cls-2" points="260 167.3 248 172.3 248 182.3 260 177.3 260 167.3"/><polygon class="cls-2" points="260 151.7 248 156.7 248 166.7 260 161.7 260 151.7"/><polygon class="cls-2" points="260 136 248 141 248 151 260 146 260 136"/><polygon class="cls-2" points="260 120.3 248 125.3 248 135.3 260 130.3 260 120.3"/><polygon class="cls-2" points="260 104.7 248 109.7 248 119.7 260 114.7 260 104.7"/><path class="cls-2" d="M235.3,135.6v-13h24v34l12-5v-28h88v-4h-8.2v-.1h0l-83.8-48v-19h-4v19l-179,45H54.4v6h69.9v81l6,7v5.3a6.2891,6.2891,0,0,0,1,12.5,6.2529,6.2529,0,0,0,6.3-6.2h-2.31a4.0091,4.0091,0,1,1-2.99-3.8532V210.6l6-7v-81h61v13Zm32-61.1,73.5,42H312.3v3h-41v-14h-4Zm-38,55h-24v-7h24Zm-94,70.6h-8V122.5h8Zm-39-83.6,167-42v31h-4v13h-24v-2Z" transform="translate(-11.3 -52.5)"/></svg>