<svg height="512" width="512" xmlns="http://www.w3.org/2000/svg"><path d="M162.67 373.095c6.996 0 21.863 4.711 37.78 10.628a2.008 2.008 0 0 0 2.705-1.883v-56.934c0-8.318-6.743-15.062-15.062-15.062H132.09a2.008 2.008 0 0 1-1.886-2.697c5.503-15.015 9.76-28.777 9.76-35.427 0-18.812-15.25-34.062-34.062-34.062S71.84 252.908 71.84 271.72c0 6.65 4.256 20.412 9.76 35.427a2.008 2.008 0 0 1-1.886 2.697H23.592c-8.318 0-15.062 6.743-15.062 15.062v164.501c0 8.318 6.743 15.062 15.062 15.062h164.501c8.318 0 15.062-6.743 15.062-15.062v-56.934a2.008 2.008 0 0 0-2.705-1.883c-15.917 5.918-30.784 10.628-37.78 10.628-18.812 0-34.062-15.25-34.062-34.062.001-18.811 15.25-34.061 34.062-34.061z" fill="#cbafea"/><path d="M241.316 70.841c-6.65 0-20.412 4.256-35.427 9.76a2.008 2.008 0 0 1-2.697-1.886V22.593c0-8.318-6.743-15.062-15.062-15.062H23.629c-8.318 0-15.062 6.743-15.062 15.062v164.501c0 8.318 6.743 15.062 15.062 15.062h56.934a2.008 2.008 0 0 0 1.883-2.705c-5.918-15.917-10.628-30.784-10.628-37.78 0-18.812 15.25-34.062 34.062-34.062s34.062 15.25 34.062 34.062c0 6.996-4.711 21.863-10.628 37.78a2.008 2.008 0 0 0 1.883 2.705h56.934c8.318 0 15.062-6.743 15.062-15.062V131.09a2.008 2.008 0 0 1 2.697-1.886c15.015 5.503 28.777 9.76 35.427 9.76 18.812 0 34.062-15.25 34.062-34.062-.002-18.811-15.252-34.061-34.063-34.061z" fill="#aad880"/><path d="M488.407 7.531H323.906c-8.318 0-15.062 6.743-15.062 15.062v56.934a2.008 2.008 0 0 0 2.705 1.883c15.917-5.918 30.784-10.628 37.78-10.628 18.812 0 34.062 15.25 34.062 34.062s-15.25 34.062-34.062 34.062c-6.996 0-21.863-4.711-37.78-10.628a2.008 2.008 0 0 0-2.705 1.883v56.934c0 8.318 6.743 15.062 15.062 15.062h56.003a2.008 2.008 0 0 1 1.886 2.697c-5.503 15.015-9.76 28.777-9.76 35.427 0 18.812 15.25 34.062 34.062 34.062s34.062-15.25 34.062-34.062c0-6.65-4.256-20.412-9.76-35.427a2.008 2.008 0 0 1 1.886-2.697h56.123c8.318 0 15.062-6.743 15.062-15.062V22.593c-.001-8.319-6.745-15.062-15.063-15.062z" fill="#ffd064"/><path d="M431.436 309.845a2.008 2.008 0 0 0-1.883 2.705c5.918 15.917 10.628 30.784 10.628 37.78 0 18.812-15.25 34.062-34.062 34.062s-34.062-15.25-34.062-34.062c0-6.996 4.711-21.863 10.628-37.78a2.008 2.008 0 0 0-1.883-2.705h-56.934c-8.318 0-15.062 6.743-15.062 15.062v56.003a2.008 2.008 0 0 1-2.697 1.886c-15.015-5.503-28.777-9.76-35.427-9.76-18.812 0-34.062 15.25-34.062 34.062s15.25 34.062 34.062 34.062c6.65 0 20.412-4.256 35.427-9.76a2.008 2.008 0 0 1 2.697 1.886v56.122c0 8.318 6.743 15.062 15.062 15.062H488.37c8.318 0 15.062-6.743 15.062-15.062V324.906c0-8.318-6.743-15.062-15.062-15.062h-56.934z" fill="#9dc6fb"/><path d="M200.45 430.59c-7.742 2.878-15.227 5.465-21.687 7.369v27.056c0 8.318-6.743 15.062-15.062 15.062H8.531v9.33c0 8.318 6.743 15.062 15.062 15.062h164.501c8.318 0 15.062-6.743 15.062-15.062v-56.934a2.009 2.009 0 0 0-2.706-1.883zM188.093 309.845h-9.33v66.509c6.46 1.904 13.945 4.491 21.687 7.369a2.008 2.008 0 0 0 2.705-1.883v-56.934c0-8.318-6.744-15.061-15.062-15.061z" fill="#bc95e2"/><path d="M249.894 71.932a34.12 34.12 0 0 1 1.091 8.578c0 18.812-15.25 34.062-34.062 34.062-6.65 0-20.412-4.256-35.427-9.76a2.008 2.008 0 0 0-2.697 1.886v56.003c0 8.318-6.743 15.062-15.062 15.062h-27.056c-1.904 6.46-4.491 13.945-7.369 21.687a2.008 2.008 0 0 0 1.883 2.705h56.934c8.318 0 15.062-6.743 15.062-15.062V131.09a2.008 2.008 0 0 1 2.697-1.886c15.015 5.503 28.777 9.76 35.427 9.76 18.812 0 34.062-15.25 34.062-34.062 0-15.848-10.824-29.166-25.483-32.97z" fill="#80cb8e"/><path d="M488.407 7.531h-9.33v155.17c0 8.318-6.743 15.062-15.062 15.062h-56.122a2.008 2.008 0 0 0-1.886 2.697c5.503 15.015 9.76 28.777 9.76 35.427 0 18.812-15.25 34.062-34.062 34.062-2.963 0-5.838-.38-8.579-1.091 3.803 14.659 17.122 25.483 32.971 25.483 18.812 0 34.062-15.25 34.062-34.062 0-6.65-4.256-20.412-9.76-35.427a2.008 2.008 0 0 1 1.886-2.697h56.122c8.318 0 15.062-6.743 15.062-15.062v-164.5c0-8.319-6.744-15.062-15.062-15.062z" fill="#ecbe6b"/><path d="M488.37 309.845h-9.33v155.17c0 8.318-6.743 15.062-15.062 15.062h-155.17v9.33c0 8.318 6.743 15.062 15.062 15.062h164.5c8.318 0 15.062-6.743 15.062-15.062V324.906c0-8.318-6.744-15.061-15.062-15.061z" fill="#80b4fb"/><path d="M188.094 512H23.593C11.136 512 1 501.865 1 489.407v-164.5c0-12.457 10.135-22.593 22.593-22.593h48.284c-6.72-19.362-7.567-26.705-7.567-30.593 0-22.934 18.659-41.592 41.592-41.592s41.592 18.659 41.592 41.592c0 3.89-.846 11.234-7.566 30.593h48.165c12.457 0 22.592 10.135 22.592 22.593v56.934a9.547 9.547 0 0 1-4.092 7.832 9.543 9.543 0 0 1-8.762 1.112c-23.773-8.838-32.234-10.158-35.161-10.158-14.629 0-26.531 11.901-26.531 26.531s11.901 26.531 26.531 26.531c2.927 0 11.388-1.32 35.156-10.157a9.541 9.541 0 0 1 8.764 1.109 9.546 9.546 0 0 1 4.095 7.834v56.934c0 12.456-10.134 22.591-22.591 22.591zM23.593 317.376c-4.153 0-7.531 3.378-7.531 7.531v164.501c0 4.153 3.378 7.531 7.531 7.531h164.501c4.152 0 7.53-3.378 7.53-7.531v-49.052c-21.073 7.46-28.874 8.394-32.953 8.394-22.934 0-41.592-18.659-41.592-41.592 0-22.934 18.659-41.592 41.592-41.592 4.079 0 11.881.934 32.953 8.394v-49.052c0-4.153-3.378-7.531-7.53-7.531H132.09a9.548 9.548 0 0 1-7.819-4.076 9.542 9.542 0 0 1-1.137-8.743c8.092-22.075 9.3-30.048 9.3-32.836 0-14.629-11.901-26.531-26.531-26.531s-26.531 11.901-26.531 26.531c0 2.787 1.208 10.758 9.3 32.835a9.537 9.537 0 0 1-8.957 12.82H23.593zM188.13 209.686h-56.934a9.548 9.548 0 0 1-7.835-4.096 9.534 9.534 0 0 1-1.107-8.765c8.836-23.766 10.156-32.227 10.156-35.154 0-14.629-11.901-26.531-26.531-26.531s-26.531 11.901-26.531 26.531c0 2.927 1.32 11.388 10.157 35.156a9.536 9.536 0 0 1-8.943 12.859H23.629c-12.457 0-22.593-10.135-22.593-22.593v-164.5C1.036 10.135 11.172 0 23.629 0h36.434c4.16 0 7.531 3.371 7.531 7.531s-3.371 7.531-7.531 7.531H23.629c-4.153 0-7.531 3.378-7.531 7.531v164.501c0 4.153 3.378 7.531 7.531 7.531h49.052c-7.46-21.074-8.394-28.874-8.394-32.953 0-22.934 18.659-41.592 41.592-41.592s41.592 18.659 41.592 41.592c0 4.079-.934 11.881-8.394 32.953h49.052c4.153 0 7.531-3.378 7.531-7.531V131.09a9.545 9.545 0 0 1 4.076-7.819 9.534 9.534 0 0 1 8.741-1.137c22.081 8.092 30.052 9.3 32.838 9.3 14.629 0 26.531-11.901 26.531-26.531s-11.901-26.531-26.531-26.531c-2.786 0-10.757 1.208-32.836 9.3a9.55 9.55 0 0 1-8.743-1.137 9.545 9.545 0 0 1-4.076-7.819V22.593c0-4.153-3.378-7.531-7.531-7.531H95.552c-4.16 0-7.531-3.371-7.531-7.531S91.392 0 95.552 0h92.578c12.457 0 22.593 10.135 22.593 22.593v48.285c19.362-6.721 26.705-7.567 30.593-7.567 22.934 0 41.592 18.659 41.592 41.592s-18.659 41.592-41.592 41.592c-3.888 0-11.231-.846-30.593-7.567v48.165c0 12.458-10.136 22.593-22.593 22.593zM406.097 281.872c-22.934 0-41.592-18.659-41.592-41.592 0-3.888.846-11.232 7.567-30.593h-48.165c-12.457 0-22.593-10.135-22.593-22.593V130.16a9.54 9.54 0 0 1 12.857-8.944c23.771 8.838 32.232 10.158 35.159 10.158 14.629 0 26.531-11.901 26.531-26.531S363.96 78.312 349.33 78.312c-2.927 0-11.388 1.32-35.156 10.157a9.537 9.537 0 0 1-12.859-8.943V22.593C301.314 10.135 311.449 0 323.906 0h164.501C500.865 0 511 10.135 511 22.593v112.318c0 4.16-3.371 7.531-7.531 7.531s-7.531-3.371-7.531-7.531V22.593c0-4.153-3.378-7.531-7.531-7.531H323.906c-4.153 0-7.531 3.378-7.531 7.531v49.052c21.074-7.46 28.874-8.394 32.953-8.394 22.934 0 41.592 18.659 41.592 41.592s-18.659 41.592-41.592 41.592c-4.079 0-11.881-.934-32.953-8.394v49.052c0 4.153 3.378 7.531 7.531 7.531h56.003a9.547 9.547 0 0 1 7.819 4.076 9.542 9.542 0 0 1 1.137 8.743c-8.092 22.078-9.3 30.049-9.3 32.836 0 14.629 11.901 26.531 26.531 26.531s26.531-11.901 26.531-26.531c0-2.787-1.208-10.758-9.3-32.835a9.547 9.547 0 0 1 1.137-8.744 9.545 9.545 0 0 1 7.819-4.076h56.123c4.153 0 7.531-3.378 7.531-7.531v-16.381c0-4.16 3.371-7.531 7.531-7.531s7.531 3.371 7.531 7.531v16.381c0 12.457-10.135 22.593-22.593 22.593h-48.285c6.72 19.361 7.567 26.705 7.567 30.593.001 22.934-18.657 41.593-41.591 41.593z"/><g><path d="M488.37 512h-48.562c-4.16 0-7.531-3.371-7.531-7.531s3.371-7.531 7.531-7.531h48.562c4.153 0 7.531-3.378 7.531-7.531v-164.5c0-4.153-3.378-7.531-7.531-7.531h-49.051c7.459 21.076 8.393 28.875 8.393 32.953 0 22.934-18.659 41.592-41.592 41.592-22.934 0-41.592-18.659-41.592-41.592 0-4.079.934-11.881 8.394-32.953H323.87c-4.153 0-7.531 3.378-7.531 7.531v56.003a9.545 9.545 0 0 1-4.076 7.819 9.528 9.528 0 0 1-8.742 1.137c-22.08-8.092-30.05-9.3-32.836-9.3-14.629 0-26.531 11.901-26.531 26.531 0 14.629 11.901 26.531 26.531 26.531 2.786 0 10.756-1.208 32.835-9.3 2.922-1.071 6.191-.646 8.743 1.137s4.076 4.706 4.076 7.819v56.123c0 4.153 3.378 7.531 7.531 7.531h78.723a7.53 7.53 0 1 1-.001 15.062h-78.723c-12.457 0-22.593-10.135-22.593-22.593v-48.285c-19.362 6.721-26.704 7.567-30.592 7.567-22.934 0-41.592-18.659-41.592-41.592 0-22.934 18.659-41.592 41.592-41.592 3.888 0 11.23.846 30.592 7.567v-48.165c0-12.457 10.135-22.593 22.593-22.593h56.935a9.536 9.536 0 0 1 8.941 12.861c-8.836 23.766-10.156 32.227-10.156 35.154 0 14.629 11.901 26.531 26.531 26.531s26.531-11.901 26.531-26.531c0-2.927-1.319-11.386-10.156-35.156a9.536 9.536 0 0 1 8.942-12.859h56.934c12.457 0 22.593 10.135 22.593 22.593v164.501C510.963 501.865 500.827 512 488.37 512z"/></g></svg>