<?xml version="1.0" encoding="utf-8"?>
<!-- Generator: Adobe Illustrator 19.2.1, SVG Export Plug-In . SVG Version: 6.00 Build 0)  -->
<svg version="1.1" id="Layer_1" xmlns="http://www.w3.org/2000/svg" xmlns:xlink="http://www.w3.org/1999/xlink" x="0px" y="0px"
	 viewBox="0 0 145 110" style="enable-background:new 0 0 145 110;" xml:space="preserve">
<style type="text/css">
	.st0{fill:#BF2C2C;}
	.st1{clip-path:url(#SVGID_2_);fill:#BF2C2C;}
	.st2{font-family:'MyriadPro-Regular';}
	.st3{font-size:7.656px;}
	.st4{clip-path:url(#SVGID_4_);fill:#BF2C2C;}
</style>
<polygon class="st0" points="63.9,16.4 63.6,15.1 58.1,16.4 54.5,14.3 58.1,12.3 63.6,13.5 63.9,12.2 59.8,11.2 63.6,9.1 62.9,7.9 
	59.1,10 60.4,6 59,5.6 57.4,11.1 53.8,13.1 53.8,9 57.7,4.9 56.7,3.9 53.8,7 53.8,2.7 52.4,2.7 52.4,7 49.6,3.9 48.6,4.9 52.4,9 
	52.4,13.1 48.9,11.1 47.2,5.6 45.9,6 47.1,10 43.4,7.9 42.7,9.1 46.4,11.2 42.3,12.2 42.7,13.5 48.2,12.3 51.7,14.3 48.2,16.4 
	42.7,15.1 42.3,16.4 46.4,17.4 42.7,19.5 43.4,20.7 47.1,18.6 45.9,22.6 47.2,23 48.9,17.6 52.4,15.5 52.4,19.6 48.6,23.8 
	49.6,24.7 52.4,21.7 52.4,26 53.8,26 53.8,21.7 56.7,24.7 57.7,23.8 53.8,19.6 53.8,15.5 57.4,17.6 59,23 60.4,22.6 59.1,18.6 
	62.9,20.7 63.6,19.5 59.8,17.4 "/>
<g>
	<defs>
		<rect id="SVGID_1_" width="145" height="110"/>
	</defs>
	<clipPath id="SVGID_2_">
		<use xlink:href="#SVGID_1_"  style="overflow:visible;"/>
	</clipPath>
	<path class="st1" d="M89.3,75.7V20.2c0-5.5-4.4-9.9-9.9-9.9c-5.5,0-9.9,4.4-9.9,9.9v55.4C64.9,78.8,62,84,62,89.9
		c-0.1,9.7,8,17.7,17.7,17.5c9.5-0.2,17.1-7.9,17.1-17.4C96.8,84,93.8,78.8,89.3,75.7 M79.6,103.9C71.9,104,65.4,97.7,65.4,90
		c0-5.4,3-10.1,7.5-12.4V20.2c0-3.6,2.9-6.4,6.4-6.4c3.6,0,6.4,2.9,6.4,6.4v57.4c4.4,2.3,7.4,7,7.4,12.3
		C93.2,97.6,87.1,103.7,79.6,103.9"/>
	<rect x="92.4" y="41.9" class="st1" width="5.2" height="0.7"/>
	<rect x="92.4" y="43.4" class="st1" width="3.8" height="0.7"/>
	<rect x="92.4" y="44.9" class="st1" width="5.2" height="0.7"/>
	<rect x="92.4" y="46.5" class="st1" width="3.8" height="0.7"/>
	<rect x="92.4" y="48" class="st1" width="5.2" height="0.7"/>
	<rect x="92.4" y="49.5" class="st1" width="3.8" height="0.7"/>
	<rect x="92.4" y="51.1" class="st1" width="5.2" height="0.7"/>
	<rect x="92.4" y="52.6" class="st1" width="3.8" height="0.7"/>
	<rect x="92.4" y="54.1" class="st1" width="5.2" height="0.7"/>
	<rect x="92.4" y="55.7" class="st1" width="3.8" height="0.7"/>
	<rect x="92.4" y="57.2" class="st1" width="5.2" height="0.7"/>
	<rect x="92.4" y="58.7" class="st1" width="3.8" height="0.7"/>
	<rect x="92.4" y="60.3" class="st1" width="5.2" height="0.7"/>
	<rect x="92.4" y="61.8" class="st1" width="3.8" height="0.7"/>
	<rect x="92.4" y="63.3" class="st1" width="5.2" height="0.7"/>
	<rect x="92.4" y="38.8" class="st1" width="5.2" height="0.7"/>
	<rect x="92.4" y="40.3" class="st1" width="3.8" height="0.7"/>
	<rect x="92.4" y="35.7" class="st1" width="5.2" height="0.7"/>
	<rect x="92.4" y="37.3" class="st1" width="3.8" height="0.7"/>
	<rect x="92.4" y="32.7" class="st1" width="5.2" height="0.7"/>
	<rect x="92.4" y="34.2" class="st1" width="3.8" height="0.7"/>
	<rect x="92.4" y="29.6" class="st1" width="5.2" height="0.7"/>
	<rect x="92.4" y="31.1" class="st1" width="3.8" height="0.7"/>
	<rect x="92.4" y="26.5" class="st1" width="5.2" height="0.7"/>
	<rect x="92.4" y="28.1" class="st1" width="3.8" height="0.7"/>
</g>
<text transform="matrix(1 0 0 1 98.7275 47.5273)" class="st0 st2 st3">0</text>
<g>
	<defs>
		<rect id="SVGID_3_" width="145" height="110"/>
	</defs>
	<clipPath id="SVGID_4_">
		<use xlink:href="#SVGID_3_"  style="overflow:visible;"/>
	</clipPath>
	<path class="st4" d="M82.4,80V51.4h-6V80c-4.3,1.3-7.4,5.3-7.4,10c0,5.8,4.7,10.4,10.4,10.4c5.8,0,10.4-4.7,10.4-10.4
		C89.8,85.3,86.7,81.3,82.4,80"/>
</g>
</svg>
