<svg height="512pt" viewBox="0 0 512 512" width="512pt" xmlns="http://www.w3.org/2000/svg"><path d="M223.676 245.996c6.578-3.851 9.414-8.465 9.414-13.84v-41.332c0-52.613-42.742-80.476-95.399-80.297-52.539.184-94.722 28.79-94.722 81.328v40.301c0 5.156 2.523 9.61 8.617 13.364" fill="#fcbd38"/><path d="M78.219 391.172H29.855c-10.964 0-19.855 8.89-19.855 19.855V502h256.059v-90.973c0-10.965-8.891-19.855-19.86-19.855h-48.183" fill="#5fd696"/><path d="M212.727 304.445c5.222-9.644 9.753-48.03 11.128-76.164-13.015 7.953-28.316 12.54-44.683 12.54-39.668 0-73.047-13.512-82.867-50.079-8.063 20.774-23.977 37.625-44.102 46.914 1.117 29.758 5.828 56.688 11.3 66.79 7.142 13.187 19.466 28.96 35.63 39.699 0 47.027-18.914 47.027-18.914 47.027s52.836 35.848 57.808 50.277c4.977-14.43 57.989-50.277 57.989-50.277s-18.918 0-18.918-47.031c16.164-10.739 28.488-26.512 35.629-39.696zm0 0" fill="#fdd1a3"/><path d="M353.516 323.465l-48.438 78.426h21.582V502h53.707V401.89h21.582zm0 0" fill="#f2685a"/><path d="M330.445 236.258c-9.336-16.367-17.37-30.485-33.273-41.176-28.656-19.262-45.395-51.348-44.785-85.828.453-25.473 11.254-50.012 30.41-69.09 19.164-19.086 43.754-29.793 69.242-30.152.492-.008.984-.012 1.477-.012 55.77 0 101.14 45.36 101.14 101.11 0 33.656-16.695 65.011-44.66 83.878-15.957 10.77-24.031 24.914-33.383 41.27zm0 0" fill="#4dbaf6"/><path d="M292.34 119.96h-.18c-5.523-.097-9.922-4.655-9.82-10.175.312-17.648 7.98-34.84 21.598-48.398 13.62-13.567 30.855-21.176 48.527-21.426.34-.004.7-.008 1.05-.008 5.524 0 10 4.48 10 10 0 5.524-4.476 10-10 10-.253 0-.511.004-.761.008-12.461.176-24.781 5.715-34.703 15.594-9.914 9.875-15.496 22.156-15.715 34.586-.098 5.46-4.555 9.82-9.996 9.82zm0 0M353.516 189.059c-3.25 0-6.297-1.582-8.172-4.239l-21.281-30.168c-3.184-4.511-2.106-10.754 2.406-13.937 4.515-3.184 10.754-2.106 13.937 2.41l13.11 18.586 13.105-18.586c3.184-4.516 9.426-5.594 13.938-2.41 4.511 3.183 5.59 9.422 2.41 13.937l-21.282 30.168a10.005 10.005 0 0 1-8.171 4.239zm0 0"/><path d="M330.543 236.258h45.945v30.094h-45.945zm0 0" fill="#fed271"/><path d="M501.426 512c-.653 0-1.301-.07-1.95-.2a9.415 9.415 0 0 1-1.87-.57 10.37 10.37 0 0 1-1.731-.921 9.717 9.717 0 0 1-2.762-2.758 9.896 9.896 0 0 1-.918-1.73 9.928 9.928 0 0 1-.762-3.82 9.933 9.933 0 0 1 .762-3.821 9.896 9.896 0 0 1 2.16-3.25c.461-.461.98-.88 1.52-1.239a10.37 10.37 0 0 1 1.73-.921c.598-.25 1.23-.45 1.872-.57a9.98 9.98 0 0 1 3.91 0c.636.12 1.27.32 1.867.57.601.25 1.18.558 1.73.921.54.36 1.063.778 1.52 1.239.46.46.883.968 1.242 1.52.36.538.668 1.12.918 1.73a9.92 9.92 0 0 1 .762 3.82 9.933 9.933 0 0 1-.762 3.82 9.896 9.896 0 0 1-.918 1.73 9.502 9.502 0 0 1-1.242 1.52c-.457.461-.98.88-1.52 1.239a10.37 10.37 0 0 1-1.73.921c-.598.25-1.23.45-1.867.57-.653.13-1.301.2-1.961.2zm0 0M291.594 203.379c13.324 8.96 20.441 20.812 28.949 35.703v27.27c0 5.523 4.477 10 10 10h45.945c5.524 0 10-4.477 10-10v-27.215c8.551-14.93 15.696-26.813 29.106-35.86 30.722-20.726 49.066-55.183 49.066-92.168C464.656 49.844 414.8 0 353.516 0c-.54 0-1.082.004-1.618.012-28.097.394-55.144 12.136-76.156 33.066-21.008 20.926-32.855 47.914-33.351 75.996-.672 37.89 17.718 73.145 49.203 94.305zm74.894 52.973h-25.945v-10.094h25.945zM262.387 109.43c.406-22.86 10.16-44.946 27.468-62.184 17.313-17.242 39.446-26.914 62.336-27.238.442-.004.883-.008 1.325-.008 50.257 0 91.144 40.871 91.144 91.105 0 30.329-15.05 58.586-40.254 75.59-16.066 10.84-24.976 24.688-33.582 39.563h-34.582c-8.558-14.836-17.445-28.692-33.492-39.477-25.824-17.36-40.914-46.277-40.363-77.351zm0 0"/><path d="M458.477 492h-68.11v-80.11h11.582a9.997 9.997 0 1 0 8.508-15.254l-48.434-78.425c-1.824-2.95-5.043-4.746-8.507-4.746s-6.688 1.797-8.508 4.746l-48.438 78.426c-1.902 3.086-1.988 6.957-.222 10.125s5.105 5.129 8.73 5.129h11.582V492H276.06v-80.973c0-16.46-13.395-29.855-29.856-29.855h-48.187c-.34 0-.672.02-1.004.05l-.11-.011c-2.511-.863-8.902-8.336-9.718-31.945 19.007-14.16 30.218-32.457 34.336-40.055v-.004c5.203-9.61 8.671-35.71 10.609-56.809 8.957-6.582 10.96-14.492 10.96-20.242v-41.332c0-24.21-8.355-45.332-24.155-61.082-18.918-18.851-47.57-29.215-80.727-29.215h-.55c-62.618.215-104.688 36.918-104.688 91.328v40.301c0 5.532 1.832 13.133 10.004 19.535 1.902 25.649 6.273 47.426 11.738 57.516 4.113 7.602 15.324 25.898 34.336 40.059-.817 23.609-7.207 31.082-9.719 31.945l-.11.012c-.327-.032-.663-.051-1.003-.051h-48.36C13.395 381.172 0 394.566 0 411.027V502c0 5.523 4.477 10 10 10h448.477c5.523 0 10-4.477 10-10s-4.477-10-10-10zm-320.75-371.473c27.988-.101 51.859 8.207 67.085 23.383 12.125 12.082 18.274 27.867 18.274 46.914v27.489a9.98 9.98 0 0 0-4.45 1.437c-11.847 7.242-25.495 11.07-39.464 11.07-40.977 0-65.606-14.355-73.211-42.672a9.996 9.996 0 0 0-9.121-7.39 10.007 10.007 0 0 0-9.86 6.367c-6.378 16.438-18.617 30.375-34.011 38.934v-34.204c0-52.43 45.66-71.19 84.758-71.328zm-65.43 179.157c-3.754-6.93-8.266-28.504-9.805-56.04 13.13-7.265 24.446-17.62 32.91-29.96 15.125 24.12 44.075 37.136 83.77 37.136 11.539 0 22.91-2.07 33.59-6.062-2.184 26.894-6.067 49.82-8.828 54.926-3.723 6.87-14.329 24.144-32.368 36.129a9.998 9.998 0 0 0-4.464 8.328c0 25.136 5.335 39.207 11.449 47.074A558.67 558.67 0 0 0 162.758 403c-11.946 9.266-19.664 16.188-24.719 21.496-5.039-5.309-12.734-12.223-24.637-21.488-5.64-4.39-11.144-8.457-15.73-11.774 6.117-7.863 11.465-21.933 11.465-47.09 0-3.347-1.68-6.476-4.469-8.328-18.047-11.988-28.648-29.261-32.371-36.132zM20 492v-80.973c0-5.433 4.422-9.855 9.855-9.855h47.25c4.407 3.062 14.008 9.844 23.856 17.5 24.902 19.363 27.52 25.781 27.613 26.035a10 10 0 0 0 9.453 6.746c4.266 0 8.063-2.7 9.45-6.734.101-.262 2.726-6.688 27.707-26.047 9.882-7.66 19.523-14.442 23.933-17.496h47.086c5.434 0 9.856 4.418 9.856 9.855V492zm316.66 0v-80.11h8.488c5.524 0 10-4.476 10-10s-4.476-10-10-10h-22.14l30.508-49.394 30.504 49.395h-3.653c-5.523 0-10 4.476-10 10V492zm0 0"/></svg>