<svg id="Capa_1" data-name="Capa 1" xmlns="http://www.w3.org/2000/svg" viewBox="0 0 263.2341 213.9874"><defs><style>.cls-1{fill:#bf2c2c;}</style></defs><title>depositphotos_85073774-stock-illustration-solar-cell-icon-set</title><polygon class="cls-1" points="79.06 213.987 79.06 194.449 108.258 194.449 108.258 175.167 154.976 175.167 154.976 194.449 184.175 194.449 184.175 213.987 79.06 213.987"/><path class="cls-1" d="M281.1992,199.0657,237.12,50.1677a10,10,0,0,0-9.5887-7.1614H72.4686A10,10,0,0,0,62.88,50.1677L18.8007,199.0657a10,10,0,0,0,9.5887,12.8385H271.6106A10,10,0,0,0,281.1992,199.0657ZM190.4957,54.8292h30.3637a3,3,0,0,1,2.8767,2.1483L232.61,86.9521a3,3,0,0,1-2.8765,3.8517H195.7105a3,3,0,0,1-2.9556-2.4859L187.54,58.3433A3,3,0,0,1,190.4957,54.8292Zm-69.944,32.46,5.2149-29.9746a3,3,0,0,1,2.9556-2.4857h42.5557a3,3,0,0,1,2.9555,2.4857L179.4483,87.29a3,3,0,0,1-2.9556,3.5143H123.5073A3,3,0,0,1,120.5517,87.29Zm-.3678,16.6173h59.6323a3,3,0,0,1,2.9555,2.4858l5.6537,32.4969a3,3,0,0,1-2.9557,3.5142H114.53a3,3,0,0,1-2.9556-3.5142l5.6537-32.4969A3,3,0,0,1,120.1839,103.9068ZM67.39,86.9521,76.264,56.9775a3,3,0,0,1,2.8766-2.1483h30.3637a3,3,0,0,1,2.9556,3.5141l-5.2147,29.9746a3,3,0,0,1-2.9556,2.4859H70.267A3,3,0,0,1,67.39,86.9521ZM94.9445,159.021l-6.711,38.5746a3,3,0,0,1-2.9556,2.4858H37.9168A3,3,0,0,1,35.04,196.23L46.46,157.6552a3,3,0,0,1,2.8767-2.1484H91.9889A3,3,0,0,1,94.9445,159.021Zm.3678-16.6173H54.9915a3,3,0,0,1-2.8766-3.8515l9.62-32.497a3,3,0,0,1,2.8766-2.1484H100.966a3,3,0,0,1,2.9556,3.5142l-5.6537,32.497A3,3,0,0,1,95.3123,142.4037Zm100.192,57.6777H104.4957a3,3,0,0,1-2.9555-3.5142l6.7109-38.5746a3,3,0,0,1,2.9555-2.4858h77.5869a3,3,0,0,1,2.9555,2.4858l6.7109,38.5746A3,3,0,0,1,195.5043,200.0814Zm6.2279-60.1634-5.6538-32.497a3,3,0,0,1,2.9557-3.5142h36.3542a3,3,0,0,1,2.8766,2.1484l9.62,32.497a3,3,0,0,1-2.8766,3.8515H204.6878A3,3,0,0,1,201.7322,139.918Zm60.3511,60.1634H214.7222a3,3,0,0,1-2.9556-2.4858l-6.711-38.5746a3,3,0,0,1,2.9555-3.5142h42.6527a3,3,0,0,1,2.8766,2.1484L264.96,196.23A3,3,0,0,1,262.0833,200.0814Z" transform="translate(-18.383 -43.0063)"/></svg>