<?xml version="1.0" encoding="utf-8"?>
<!-- Generator: Adobe Illustrator 19.2.1, SVG Export Plug-In . SVG Version: 6.00 Build 0)  -->
<svg version="1.1" id="Layer_1" xmlns="http://www.w3.org/2000/svg" xmlns:xlink="http://www.w3.org/1999/xlink" x="0px" y="0px"
	 viewBox="0 0 512 512" style="enable-background:new 0 0 512 512;" xml:space="preserve">
<style type="text/css">
	.st0{fill:#46C483;}
	.st1{fill:#0C8044;}
	.st2{fill:#6A829A;}
	.st3{fill:#516980;}
	.st4{fill:#F4E74D;}
	.st5{fill:#889CB0;}
	.st6{fill:#63E4A1;}
	.st7{fill:#FFFCDC;}
</style>
<path class="st0" d="M326.2,483H57.1c-27.4,0-49.6-22.2-49.6-49.6V145.2c0-16.3,6.5-31.8,18-43.3l76.4-76.4
	C113.3,14,128.9,7.5,145.2,7.5h181c27.4,0,49.6,22.2,49.6,49.6v376.3C375.8,460.8,353.6,483,326.2,483z"/>
<path class="st1" d="M375.8,433.4v-98.1h-139c0,0-26.1,62.4,11.7,147.7h77.7C353.6,483,375.8,460.8,375.8,433.4z"/>
<path class="st1" d="M101.8,25.4l-76.4,76.4c-11.5,11.5-18,27.1-18,43.3v105.2C29.1,208.3,55.9,221.3,125,199
	c71.7-23.1,63-153.3,58.8-191.5h-38.7C128.9,7.5,113.3,14,101.8,25.4z"/>
<path class="st2" d="M311.4,186.2H71.9c-8.4,0-15.2-6.8-15.2-15.2s6.8-15.2,15.2-15.2h239.5c8.4,0,15.2,6.8,15.2,15.2
	S319.8,186.2,311.4,186.2z"/>
<path class="st3" d="M71.9,155.8c-8.4,0-15.2,6.8-15.2,15.2s6.8,15.2,15.2,15.2h75.9c9.3-8,16.4-18.5,21.9-30.4H71.9z"/>
<g>
	<path class="st2" d="M311.4,252.6H71.9c-8.4,0-15.2-6.8-15.2-15.2c0-8.4,6.8-15.2,15.2-15.2h239.5c8.4,0,15.2,6.8,15.2,15.2
		C326.6,245.8,319.8,252.6,311.4,252.6z"/>
	<path class="st2" d="M311.4,319H71.9c-8.4,0-15.2-6.8-15.2-15.2c0-8.4,6.8-15.2,15.2-15.2h239.5c8.4,0,15.2,6.8,15.2,15.2
		C326.6,312.2,319.8,319,311.4,319z"/>
	<path class="st2" d="M311.4,385.4H71.9c-8.4,0-15.2-6.8-15.2-15.2c0-8.4,6.8-15.2,15.2-15.2h239.5c8.4,0,15.2,6.8,15.2,15.2
		C326.6,378.6,319.8,385.4,311.4,385.4z"/>
</g>
<path class="st3" d="M311.4,355h-80.1c-1.6,8-2.9,18.3-3.3,30.4h83.4c8.4,0,15.2-6.8,15.2-15.2S319.8,355,311.4,355z"/>
<path class="st0" d="M25.4,101.9c-5.2,5.2-9.4,11.3-12.4,17.9h75.2c17.4,0,31.6-14.1,31.6-31.6V13c-6.6,3-12.7,7.2-17.9,12.4
	L25.4,101.9z"/>
<path class="st2" d="M497.1,468.2c-9.9,9.9-25.9,9.9-35.8,0l-77-77l35.8-35.8l77,77C507,442.2,507,458.3,497.1,468.2z"/>
<path class="st4" d="M449.3,398l-22.4,22.4c-13.5,13.5-35.3,13.5-48.8,0l-15.9-15.8l71.2-71.2l15.8,15.9
	C462.8,362.7,462.8,384.5,449.3,398z"/>
<path class="st5" d="M440.3,307.8c0,57.2-46.4,103.6-103.6,103.6S233.1,365,233.1,307.8s46.4-103.6,103.6-103.6
	S440.3,250.5,440.3,307.8z"/>
<path class="st6" d="M383.8,354.9c-26,26-68.2,26-94.2,0c-26-26-26-68.2,0-94.2s68.2-26,94.2,0S409.7,328.9,383.8,354.9z"/>
<path class="st7" d="M345.8,277.5l6,12.1l13.4,1.9c8.4,1.2,11.7,11.5,5.7,17.4l-9.7,9.4l2.3,13.3c1.4,8.3-7.3,14.7-14.8,10.8
	l-11.9-6.3l-11.9,6.3c-7.5,3.9-16.2-2.4-14.8-10.8l2.3-13.3l-9.7-9.4c-6.1-5.9-2.7-16.2,5.7-17.4l13.3-1.9l6-12.1
	C331.2,269.9,342.1,269.9,345.8,277.5z"/>
<path d="M284.2,255.3c-23.1,23.1-28.3,59.4-12.6,88.1c2,3.6,6.6,5,10.2,3c3.6-2,5-6.6,3-10.2c-12.6-22.9-8.4-51.8,10-70.3
	c23.1-23.1,60.6-23.1,83.6,0c23.1,23.1,23.1,60.6,0,83.6c-19.5,19.5-50.4,22.8-73.6,8.1c-3.5-2.2-8.1-1.2-10.4,2.3
	s-1.2,8.1,2.3,10.4c12.1,7.7,25.9,11.5,39.7,11.5c19.2,0,38.4-7.4,52.6-21.6c14-14,21.7-32.6,21.7-52.4c0-19.8-7.7-38.4-21.7-52.4
	C360.2,226.4,313.1,226.4,284.2,255.3z"/>
<path d="M380.5,296.2c-2.1-6.5-7.6-11.1-14.3-12.1l-9.4-1.4l-4.2-8.6c-3-6.1-9.1-9.9-15.9-9.9c-6.8,0-12.9,3.8-15.9,9.9l-4.2,8.6
	l-9.4,1.4c-6.7,1-12.2,5.6-14.3,12.1c-2.1,6.5-0.4,13.4,4.5,18.2l6.8,6.7l-1.6,9.4c-1.1,6.7,1.6,13.3,7,17.3
	c3.1,2.3,10.7,5.3,18.7,1.4l8.4-4.4l8.4,4.4c6,3.2,13.2,2.6,18.7-1.4c5.5-4,8.2-10.6,7-17.3l-1.6-9.4l6.8-6.7
	C380.9,309.6,382.6,302.7,380.5,296.2z M365.6,303.6l-9.7,9.4c-1.8,1.7-2.6,4.2-2.2,6.6L356,333c0.2,1.4-0.6,2.3-1.1,2.7
	c-0.5,0.4-1.6,0.9-2.9,0.2l-11.9-6.3c-1.1-0.6-2.3-0.9-3.5-0.9s-2.4,0.3-3.5,0.9l-11.9,6.3c-1.3,0.7-2.3,0.2-2.9-0.2
	c-0.5-0.4-1.3-1.2-1.1-2.7l2.3-13.3c0.4-2.4-0.4-4.9-2.2-6.6l-9.7-9.4c-1.1-1-0.9-2.2-0.7-2.8c0.2-0.6,0.7-1.6,2.2-1.8l13.3-1.9
	c2.4-0.4,4.6-1.9,5.6-4.1l6-12.1c0.7-1.3,1.8-1.5,2.4-1.5s1.8,0.2,2.4,1.5l6,12.1c1.1,2.2,3.2,3.7,5.6,4.1l13.3,1.9
	c1.4,0.2,2,1.3,2.2,1.8S366.6,302.6,365.6,303.6z"/>
<path d="M502.4,427l-19.9-19.9c-2.9-2.9-7.7-2.9-10.6,0c-2.9,2.9-2.9,7.7,0,10.6l19.9,19.9c3.4,3.4,9,16.2,0,25.2
	c-9,9-21.9,3.4-25.2,0l-35.8-35.8c0.5-0.5,23.8-23.8,23.8-23.8c16.4-16.4,16.4-43,0-59.4l-10-10c8.8-36.4-1-76.4-29.4-104.7
	c-9.5-9.5-20.4-16.9-31.9-22.3V57.1c0-31.5-25.6-57.1-57.1-57.1h-181c-18.4,0-35.7,7.2-48.6,20.1L20.1,96.5
	C7.2,109.5,0,126.8,0,145.2v288.2c0,31.5,25.6,57.1,57.1,57.1h269.1c31.5,0,57.1-25.6,57.1-57.1v-0.1c5.9,3,20,8.6,34.3,1.8
	l38.3,38.3c6.2,6.2,26.9,19.6,46.4,0c6.2-6.2,9.6-14.5,9.6-23.2C512,441.5,508.6,433.2,502.4,427z M404.6,375.7
	c-37.5,37.5-98.4,37.5-135.9,0c-37.5-37.5-37.5-98.4,0-135.9c18.7-18.7,43.3-28.1,68-28.1s49.2,9.4,68,28.1
	C442.1,277.3,442.1,338.2,404.6,375.7z M225.7,311.5H71.9c-4.3,0-7.7-3.5-7.7-7.7c0-4.3,3.5-7.7,7.7-7.7h154.3
	C225.7,301.2,225.5,306.4,225.7,311.5z M250.5,377.9H71.9c-4.3,0-7.7-3.5-7.7-7.7s3.5-7.7,7.7-7.7H240
	C243,367.8,246.5,373,250.5,377.9z M244.9,245.1h-173c-4.3,0-7.7-3.5-7.7-7.7s3.5-7.7,7.7-7.7h185.8
	C252.9,234.5,248.6,239.7,244.9,245.1z M326.2,475.5H57.1c-23.2,0-42.1-18.9-42.1-42.1V145.2c0-14.4,5.6-27.9,15.8-38l76.4-76.4
	c1.6-1.6,3.4-3.1,5.1-4.5v62c0,13.3-10.8,24.1-24.1,24.1H47.7c-4.1,0-7.5,3.4-7.5,7.5c0,4.1,3.4,7.5,7.5,7.5h40.5
	c21.5,0,39.1-17.5,39.1-39.1V18c5.7-2,11.7-3,17.9-3h181c23.2,0,42.1,18.9,42.1,42.1v144.2c-30.8-9.1-64.7-4.6-92.3,13.4H71.9
	c-12.5,0-22.7,10.2-22.7,22.7c0,12.5,10.2,22.7,22.7,22.7h164.4c-3.2,6.8-5.7,13.8-7.5,21h-157c-12.5,0-22.7,10.2-22.7,22.7
	c0,12.5,10.2,22.7,22.7,22.7h155.3c1.2,7.1,3.1,14.2,5.7,21h-161c-12.5,0-22.7,10.2-22.7,22.7c0,12.5,10.2,22.7,22.7,22.7h193.4
	c20.6,17.3,46,25.9,71.4,25.9c8.8,0,17.6-1,26.2-3.1l5.5,5.5v12.2C368.3,456.6,349.4,475.5,326.2,475.5z M378.9,410.5
	c13.2-5.4,25.6-13.5,36.4-24.2c10.7-10.7,18.8-23.1,24.2-36.4c0,0,26.7,20.6,4.5,42.8l-22.4,22.4
	C398.8,437.9,378.9,410.5,378.9,410.5z"/>
<path d="M71.9,193.7h239.5c12.5,0,22.7-10.2,22.7-22.7s-10.2-22.7-22.7-22.7H71.9c-12.5,0-22.7,10.2-22.7,22.7
	C49.2,183.5,59.4,193.7,71.9,193.7z M71.9,163.3h239.5c4.3,0,7.7,3.5,7.7,7.7s-3.5,7.7-7.7,7.7H71.9c-4.3,0-7.7-3.5-7.7-7.7
	S67.6,163.3,71.9,163.3z"/>
</svg>
