<?xml version="1.0" encoding="utf-8"?>
<!-- Generator: Adobe Illustrator 19.2.1, SVG Export Plug-In . SVG Version: 6.00 Build 0)  -->
<svg version="1.1" id="Layer_1" xmlns="http://www.w3.org/2000/svg" xmlns:xlink="http://www.w3.org/1999/xlink" x="0px" y="0px"
	 viewBox="0 0 595.3 480" style="enable-background:new 0 0 595.3 480;" xml:space="preserve">
<style type="text/css">
	.st0{fill:#CFE9D9;stroke:#010101;stroke-width:4;stroke-miterlimit:10;}
	.st1{fill:#52BC82;}
	.st2{fill:#118144;}
	.st3{fill:#6B839A;}
	.st4{fill:#526A81;}
	.st5{fill:#F4E74E;}
	.st6{fill:#889CB0;}
	.st7{fill:#7AC798;}
	.st8{fill:#FEFBDE;}
	.st9{fill:#010101;}
</style>
<g>
	<title>forma1</title>
	<path class="st0" d="M425.2,189.5c-66.7-6.2-26.5-84.2-89.9-127.5c-45.8-30.9-116.9,8.5-138.8,76.7c-17,53.1-31.4,81.1-61.3,100.4
		c-38.4,25.2-63.1,50.2-69.8,84c-5.9,31.4,23.9,85.4,70.2,89.3c85.6,7.5,113.5-67.3,241.6-52.8c51.6,5.8,135.5-27.1,145.8-54.1
		C540.8,259.4,494,196.2,425.2,189.5z"/>
	<g>
		<path class="st1" d="M331.5,327.5H225.6c-10.8,0-19.6-8.8-19.6-19.6V194.6c0-6.4,2.6-12.6,7-17l30.1-30.1c4.4-4.6,10.6-7,17-7
			h71.1c10.8,0,19.6,8.8,19.6,19.6v147.8C351.1,318.7,342.3,327.5,331.5,327.5z"/>
		<path class="st2" d="M351.1,307.9v-38.6h-54.6c0,0-10.3,24.5,4.6,57.9h30.6C342.3,327.5,351.1,318.7,351.1,307.9z"/>
		<path class="st2" d="M243.4,147.5l-30.1,30.1c-4.6,4.6-7,10.6-7,17v41.5c8.5-16.5,19.1-11.3,46.1-20.1c28.1-9,24.7-60.3,23.2-75.2
			h-15.2C254,140.5,247.8,143.1,243.4,147.5z"/>
		<path class="st3" d="M325.8,210.8h-94.3c-3.3,0-5.9-2.6-5.9-5.9c0-3.3,2.6-5.9,5.9-5.9h94.3c3.3,0,5.9,2.6,5.9,5.9
			C331.8,208.3,328.9,210.8,325.8,210.8z"/>
		<path class="st4" d="M231.6,198.7c-3.3,0-5.9,2.6-5.9,5.9s2.6,5.9,5.9,5.9h29.9c3.6-3.1,6.4-7.2,8.5-11.8H231.6z"/>
		<g>
			<path class="st3" d="M325.8,236.8h-94.3c-3.3,0-5.9-2.6-5.9-5.9c0-3.3,2.6-5.9,5.9-5.9h94.3c3.3,0,5.9,2.6,5.9,5.9
				C331.8,234.3,328.9,236.8,325.8,236.8z"/>
			<path class="st3" d="M325.8,262.9h-94.3c-3.3,0-5.9-2.6-5.9-5.9s2.6-5.9,5.9-5.9h94.3c3.3,0,5.9,2.6,5.9,5.9
				S328.9,262.9,325.8,262.9z"/>
			<path class="st3" d="M325.8,289.1h-94.3c-3.3,0-5.9-2.6-5.9-5.9s2.6-5.9,5.9-5.9h94.3c3.3,0,5.9,2.6,5.9,5.9
				S328.9,289.1,325.8,289.1z"/>
		</g>
		<path class="st4" d="M325.8,277h-31.7c-0.5,3.1-1,7.2-1.3,11.8h32.7c3.3,0,5.9-2.6,5.9-5.9S328.9,277,325.8,277z"/>
		<path class="st1" d="M213.3,177.6c-2.1,2.1-3.6,4.4-4.9,7H238c7,0,12.4-5.7,12.4-12.4v-29.6c-2.6,1.3-4.9,2.8-7,4.9L213.3,177.6z"
			/>
		<path class="st3" d="M398.7,321.6c-3.9,3.9-10.3,3.9-14.2,0l-30.4-30.4l14.2-14.2l30.4,30.4C402.6,311.3,402.6,317.7,398.7,321.6z
			"/>
		<path class="st5" d="M379.9,294l-8.8,8.8c-5.4,5.4-13.9,5.4-19.1,0l-6.2-6.2l28.1-28.1l6.2,6.2C385.3,280.1,385.3,288.6,379.9,294
			z"/>
		<path class="st6" d="M376.3,258.5c0,22.4-18.3,40.7-40.7,40.7c-22.4,0-40.7-18.3-40.7-40.7c0-22.4,18.3-40.7,40.7-40.7
			C358,217.8,376.3,236.1,376.3,258.5z"/>
		<path class="st7" d="M354.2,277c-10.3,10.3-26.8,10.3-37.1,0s-10.3-26.8,0-37.1s26.8-10.3,37.1,0
			C364.5,250.2,364.5,266.7,354.2,277z"/>
		<path class="st8" d="M339.2,246.6l2.3,4.6l5.2,0.8c3.3,0.5,4.6,4.6,2.3,7l-3.9,3.6l1,5.2c0.5,3.3-2.8,5.7-5.9,4.1l-4.6-2.6
			l-4.6,2.6c-2.8,1.5-6.4-1-5.9-4.1l1-5.2l-3.9-3.6c-2.3-2.3-1-6.4,2.3-7l5.2-0.8l2.3-4.6C333.6,243.5,337.7,243.5,339.2,246.6z"/>
		<path class="st9" d="M315,237.9c-9,9-11.1,23.4-4.9,34.5c0.8,1.3,2.6,2.1,4.1,1.3c1.3-0.8,2.1-2.6,1.3-4.1
			c-4.9-9-3.3-20.3,3.9-27.6c9-9,23.7-9,33,0c9,9,9,23.7,0,33c-7.7,7.7-19.8,9-28.8,3.1c-1.3-0.8-3.1-0.5-4.1,1
			c-1,1.3-0.5,3.1,1,4.1c4.6,3.1,10.3,4.6,15.7,4.6c7.5,0,15.2-2.8,20.6-8.5c5.4-5.4,8.5-12.9,8.5-20.6s-3.1-15.2-8.5-20.6
			C344.9,226.5,326.3,226.5,315,237.9z"/>
		<path class="st9" d="M352.9,253.8c-0.8-2.6-3.1-4.4-5.7-4.6l-3.6-0.5l-1.5-3.3c-1.3-2.3-3.6-3.9-6.2-3.9s-5.2,1.5-6.2,3.9
			l-1.5,3.3l-3.6,0.5c-2.6,0.5-4.9,2.3-5.7,4.6c-0.8,2.6-0.3,5.2,1.8,7.2l2.6,2.6l-0.5,3.6c-0.5,2.6,0.5,5.2,2.8,6.7
			c1.3,1,4.1,2.1,7.5,0.5l3.3-1.8l3.3,1.8c2.3,1.3,5.2,1,7.5-0.5s3.3-4.1,2.8-6.7l-0.5-3.6l2.6-2.6
			C353.1,259.3,353.6,256.4,352.9,253.8z M347,256.9l-3.9,3.6c-0.8,0.8-1,1.5-0.8,2.6l1,5.2c0,0.5-0.3,1-0.5,1c-0.3,0.3-0.5,0.3-1,0
			l-4.6-2.6c-0.5-0.3-1-0.3-1.3-0.3c-0.5,0-1,0-1.3,0.3l-4.6,2.6c-0.5,0.3-1,0-1,0c-0.3-0.3-0.5-0.5-0.5-1l1-5.2
			c0.3-1-0.3-1.8-0.8-2.6l-3.9-3.6c-0.5-0.5-0.3-0.8-0.3-1c0-0.3,0.3-0.5,0.8-0.8l5.2-0.8c1-0.3,1.8-0.8,2.3-1.5l2.3-4.6
			c0.3-0.5,0.8-0.5,1-0.5s0.8,0,1,0.5l2.3,4.6c0.5,0.8,1.3,1.5,2.3,1.5l5.2,0.8c0.5,0,0.8,0.5,0.8,0.8
			C347.2,255.9,347.5,256.4,347,256.9z"/>
		<path class="st9" d="M400.8,305.4l-7.7-7.7c-1-1-3.1-1-4.1,0s-1,3.1,0,4.1l7.7,7.7c1.3,1.3,3.6,6.4,0,9.8s-8.5,1.3-9.8,0
			l-14.2-14.2c0.3-0.3,9.3-9.3,9.3-9.3c6.4-6.4,6.4-17,0-23.4l-3.9-3.9c3.3-14.4-0.5-30.1-11.6-41.2c-3.6-3.6-8-6.7-12.6-8.8v-58.5
			c0-12.4-10-22.4-22.4-22.4h-71.1c-7.2,0-13.9,2.8-19.1,8l-30.1,29.9c-5.2,5.2-8,11.8-8,19.1v113.3c0,12.4,10,22.4,22.4,22.4h105.9
			c12.4,0,22.4-10,22.4-22.4l0,0c2.3,1.3,8,3.3,13.4,0.8l14.9,14.9c2.3,2.3,10.6,7.7,18.3,0c2.3-2.3,3.9-5.7,3.9-9
			C404.6,311,403.4,307.9,400.8,305.4z M362.4,285.3c-14.7,14.7-38.6,14.7-53.3,0c-14.7-14.7-14.7-38.6,0-53.3
			c7.5-7.5,17-11.1,26.8-11.1s19.3,3.6,26.8,11.1C377.1,246.6,377.1,270.6,362.4,285.3z M292.1,260h-60.5c-1.8,0-3.1-1.3-3.1-3.1
			c0-1.8,1.3-3.1,3.1-3.1h60.8C292.1,255.9,291.8,258,292.1,260z M301.9,286h-70.3c-1.8,0-3.1-1.3-3.1-3.1c0-1.5,1.3-3.1,3.1-3.1
			h66.2C298.8,282.2,300.3,284.2,301.9,286z M299.6,233.8h-68c-1.8,0-3.1-1.3-3.1-3.1c0-1.5,1.3-3.1,3.1-3.1h73.1
			C302.7,229.6,301.1,231.7,299.6,233.8z M331.5,324.4H225.6c-9,0-16.5-7.5-16.5-16.5V194.6c0-5.7,2.3-11.1,6.2-14.9l30.1-30.1
			c0.5-0.5,1.3-1.3,2.1-1.8v24.5c0,5.2-4.1,9.5-9.5,9.5h-16c-1.5,0-2.8,1.3-2.8,2.8c0,1.5,1.3,2.8,2.8,2.8h16
			c8.5,0,15.5-7,15.5-15.5v-27.3c2.3-0.8,4.6-1.3,7-1.3h71.1c9,0,16.5,7.5,16.5,16.5v56.7c-12.1-3.6-25.5-1.8-36.3,5.2h-80.1
			c-4.9,0-9,4.1-9,9s4.1,9,9,9h64.6c-1.3,2.6-2.3,5.4-2.8,8.2h-61.8c-4.9,0-9,4.1-9,9c0,4.9,4.1,9,9,9h61c0.5,2.8,1.3,5.7,2.3,8.2
			h-63.4c-4.9,0-9,4.1-9,9s4.1,9,9,9h76c8,6.7,18,10.3,28.1,10.3c3.3,0,7-0.5,10.3-1.3l2.1,2.1v4.9
			C348,316.9,340.8,324.4,331.5,324.4z M352.4,298.9c5.2-2.1,10-5.4,14.4-9.5c4.1-4.1,7.5-9,9.5-14.4c0,0,10.6,8,1.8,16.7l-8.8,8.8
			C360.1,309.7,352.4,298.9,352.4,298.9z"/>
		<path class="st9" d="M231.6,213.7h94.3c4.9,0,9-4.1,9-9s-4.1-9-9-9h-94.3c-4.9,0-9,4.1-9,9S226.7,213.7,231.6,213.7z M231.6,201.8
			h94.3c1.8,0,3.1,1.3,3.1,3.1c0,1.5-1.3,3.1-3.1,3.1h-94.3c-1.8,0-3.1-1.3-3.1-3.1C228.5,203.1,229.8,201.8,231.6,201.8z"/>
	</g>
</g>
</svg>
