<svg id="Layer_1" enable-background="new 0 0 510 510" height="512" viewBox="0 0 510 510" width="512" xmlns="http://www.w3.org/2000/svg"><g><path d="m510 405v-390h-510v390h189.188l-20 60h-34.188v30h240v-30h-34.189l-20-60zm-480-30v-330h450v330h-169.189-111.623zm279.189 90h-108.378l20-60h68.377z"/><path d="m435 315v-30h-227.58c-6.192-17.459-22.865-30-42.42-30s-36.228 12.541-42.42 30h-47.58v30h47.58c6.192 17.459 22.865 30 42.42 30s36.227-12.541 42.42-30zm-270 0c-8.271 0-15-6.728-15-15s6.729-15 15-15 15 6.728 15 15-6.729 15-15 15z"/><path d="m345 255c19.555 0 36.227-12.541 42.42-30h47.58v-30h-47.58c-6.192-17.459-22.865-30-42.42-30s-36.228 12.541-42.42 30h-227.58v30h227.58c6.192 17.459 22.865 30 42.42 30zm0-60c8.271 0 15 6.729 15 15s-6.729 15-15 15-15-6.729-15-15 6.729-15 15-15z"/><path d="m165 165c19.555 0 36.227-12.541 42.42-30h227.58v-30h-227.58c-6.192-17.459-22.865-30-42.42-30s-36.228 12.541-42.42 30h-47.58v30h47.58c6.192 17.459 22.865 30 42.42 30zm0-60c8.271 0 15 6.729 15 15s-6.729 15-15 15-15-6.729-15-15 6.729-15 15-15z"/></g></svg>