<svg xmlns="http://www.w3.org/2000/svg" viewBox="0 0 136.35 151.02"><defs><style>.cls-1{isolation:isolate;}.cls-2,.cls-4{fill:#00d6ca;}.cls-2,.cls-3,.cls-5{mix-blend-mode:screen;}.cls-5,.cls-6{fill:#0087eb;}</style></defs><title>question</title><g class="cls-1"><g id="Layer_1" data-name="Layer 1"><path class="cls-2" d="M138.2,114c54.45-42.64,120.86,17.07,59.81,60-26.66,18.76,8.39,25.91-35.21,24.46-1.71-16.58-3.29-21.5.59-27.17,7-10.3,19.11-12.2,26.09-23.47,7.87-12.7-1.93-27.54-21.63-22.14C147,131.37,153.77,139.72,138.2,114Z" transform="translate(-131.62 -96.16)"/><path class="cls-2" d="M155.94,225.77c0.68-20.55,32.46-19.33,31.78,1.05S155.26,246.38,155.94,225.77Z" transform="translate(-131.62 -96.16)"/><g class="cls-3"><path class="cls-4" d="M172.05,203.59c-2.7,0-5.81-.06-9.42-0.18l-4.36-.14-0.45-4.34c-0.31-3-.61-5.59-0.88-7.88-1.28-10.94-1.92-16.43,2.31-22.62l0.1-.15,0.82,0.57-0.1.14c-4,5.88-3.39,11.24-2.14,21.94,0.27,2.3.57,4.91,0.88,7.9l0.36,3.47,3.49,0.12c17.47,0.58,23.07-.1,26.06-3.15a6.64,6.64,0,0,0,1.75-3.12l1,0.24a7.62,7.62,0,0,1-2,3.58C186.87,202.59,182.68,203.59,172.05,203.59Z" transform="translate(-131.62 -96.16)"/><path class="cls-4" d="M188.1,140.32l-1-.14a10.14,10.14,0,0,0,.1-1.42,8.66,8.66,0,0,0-1-4.14c-1.66-3.1-5.23-5-9.8-5.12a20.08,20.08,0,0,0-2.06,0l-0.07-1c0.74-.05,1.46-0.06,2.16,0,4.93,0.16,8.81,2.22,10.65,5.65a9.65,9.65,0,0,1,1.14,4.61A11.1,11.1,0,0,1,188.1,140.32Z" transform="translate(-131.62 -96.16)"/><path class="cls-4" d="M151.52,136.64h-0.3c-5.36-.18-7.63-4-14.38-15.22-0.88-1.47-1.85-3.08-2.92-4.86l-2.29-3.79,3.49-2.73a73.74,73.74,0,0,1,27.73-13.87l0.24,1a72.76,72.76,0,0,0-27.35,13.69L132.94,113l1.83,3c1.08,1.78,2,3.4,2.92,4.86,6.54,10.91,8.74,14.58,13.55,14.74a9.4,9.4,0,0,0,3.72-.7l0.35,0.94A10.64,10.64,0,0,1,151.52,136.64Z" transform="translate(-131.62 -96.16)"/></g><g class="cls-3"><path class="cls-4" d="M171.21,246.69h-0.1c-10-.33-20.18-7.39-20.18-20.25,0-.27,0-0.55,0-0.83a22,22,0,0,1,1.31-6.93L153.2,219a21,21,0,0,0-1.25,6.61q0,0.4,0,.79c0,12.22,9.66,18.94,19.21,19.25Zm19-10.2-0.88-.48a20,20,0,0,0,2.36-9.05c0-.26,0-0.53,0-0.79a18.86,18.86,0,0,0-3.12-10.76l0.83-.56a19.84,19.84,0,0,1,3.29,11.32c0,0.27,0,.54,0,0.82A20.94,20.94,0,0,1,190.24,236.49Z" transform="translate(-131.62 -96.16)"/></g><path class="cls-5" d="M197.47,142.82c42.35-33.17,94,13.28,46.52,46.66-20.74,14.59,6.52,20.15-27.39,19-1.33-12.89-2.56-16.72.46-21.13,5.48-8,14.86-9.49,20.3-18.26,6.13-9.88-1.5-21.42-16.82-17.22C204.28,156.36,209.59,162.86,197.47,142.82Z" transform="translate(-131.62 -96.16)"/><path class="cls-5" d="M211.27,229.8c0.53-16,25.25-15,24.72.82S210.74,245.83,211.27,229.8Z" transform="translate(-131.62 -96.16)"/><g class="cls-3"><path class="cls-6" d="M223.86,213.65c-2.13,0-4.58-.05-7.42-0.14l-4.36-.14L211.63,209c-0.23-2.24-.46-4.2-0.66-5.94l0-.17c-1-8.79-1.54-13.2,2-18.35a27,27,0,0,1,4.26-4.83l0.67,0.74a26,26,0,0,0-4.1,4.65c-3.31,4.85-2.81,9.13-1.82,17.67l0,0.17c0.2,1.74.43,3.71,0.66,6l0.36,3.47,3.49,0.12c14.06,0.47,18.37-.09,20.94-2.71,2-2,1.87-4.46,1.78-6.23a12.1,12.1,0,0,1,0-2.05l1,0.11a11.12,11.12,0,0,0,0,1.89c0.1,1.85.24,4.64-2.07,7S232.54,213.65,223.86,213.65Z" transform="translate(-131.62 -96.16)"/><path class="cls-6" d="M235.32,163.68l-1-.2a6.92,6.92,0,0,0,.14-1.37,5.66,5.66,0,0,0-.66-2.7c-1-1.89-3.2-3.11-6-3.36l0.09-1c3.16,0.28,5.64,1.69,6.81,3.88a6.65,6.65,0,0,1,.78,3.17A8,8,0,0,1,235.32,163.68Z" transform="translate(-131.62 -96.16)"/><path class="cls-6" d="M207.83,161.57h-0.26c-4.77-.16-6.77-3.49-12.1-12.38l-2.27-3.78-2.29-3.79,3.49-2.73a56.91,56.91,0,0,1,28.41-12.15l0.11,1A55.91,55.91,0,0,0,195,139.67l-2.79,2.19,1.83,3,2.27,3.78c5.13,8.56,7,11.76,11.28,11.9,2,0.09,3.67-.74,5.66-1.66,0.77-.36,1.61-0.75,2.58-1.16l0.39,0.92c-1,.4-1.78.79-2.54,1.15C211.66,160.75,209.91,161.57,207.83,161.57Z" transform="translate(-131.62 -96.16)"/><path class="cls-6" d="M259.74,181.7l-0.78-.62c5.32-6.71,8-13.75,8-20.94a28.22,28.22,0,0,0-.5-5.25l1-.19a29.2,29.2,0,0,1,.51,5.43C268,167.56,265.2,174.82,259.74,181.7Z" transform="translate(-131.62 -96.16)"/></g><g class="cls-3"><path class="cls-6" d="M223,247.17c-8.33-.28-16.77-6.15-16.77-16.86q0-.34,0-0.69c0.38-11.54,9.63-16.65,17.88-16.36a17.47,17.47,0,0,1,14.77,8.47l-0.87.49a16.47,16.47,0,0,0-13.93-8c-7.76-.25-16.49,4.53-16.85,15.4,0,0.22,0,.44,0,0.66,0,10.07,8,15.6,15.8,15.86Z" transform="translate(-131.62 -96.16)"/></g><circle class="cls-4" cx="11.71" cy="118.04" r="2.08"/><circle class="cls-6" cx="120.94" cy="108.21" r="3.97"/></g></g></svg>