<svg width="410" height="410" viewBox="0 0 410 410" fill="none" xmlns="http://www.w3.org/2000/svg">
<g clip-path="url(#clip0)">
<path d="M245.772 248.992H153.048C143.607 248.992 135.958 241.343 135.958 231.901V132.596C135.958 126.98 138.197 121.639 142.16 117.676L168.485 91.3511C172.413 87.3885 177.789 85.1488 183.405 85.1488H245.772C255.214 85.1488 262.863 92.7983 262.863 102.24V231.901C262.863 241.343 255.214 248.992 245.772 248.992Z" fill="#46C483"/>
<path d="M262.863 231.901V198.099H214.968C214.968 198.099 205.974 219.6 218.999 248.992H245.772C255.214 248.992 262.863 241.343 262.863 231.901Z" fill="#0C8044"/>
<path d="M168.451 91.3166L142.126 117.642C138.163 121.604 135.923 126.98 135.923 132.562V168.81C143.401 154.339 152.635 158.818 176.445 151.134C201.15 143.174 198.153 98.3114 196.706 85.1488H183.371C177.789 85.1488 172.413 87.3885 168.451 91.3166Z" fill="#0C8044"/>
<path d="M240.673 146.724H158.148C155.254 146.724 152.911 144.38 152.911 141.486C152.911 138.592 155.254 136.249 158.148 136.249H240.673C243.567 136.249 245.91 138.592 245.91 141.486C245.91 144.38 243.567 146.724 240.673 146.724Z" fill="#6A829A"/>
<path d="M158.148 136.249C155.254 136.249 152.911 138.592 152.911 141.486C152.911 144.38 155.254 146.724 158.148 146.724H184.301C187.506 143.967 189.952 140.349 191.847 136.249H158.148Z" fill="#516980"/>
<path d="M240.673 169.603H158.148C155.254 169.603 152.911 167.26 152.911 164.366C152.911 161.471 155.254 159.128 158.148 159.128H240.673C243.567 159.128 245.91 161.471 245.91 164.366C245.91 167.26 243.567 169.603 240.673 169.603Z" fill="#6A829A"/>
<path d="M240.673 192.482H158.148C155.254 192.482 152.911 190.139 152.911 187.245C152.911 184.351 155.254 182.008 158.148 182.008H240.673C243.567 182.008 245.91 184.351 245.91 187.245C245.91 190.139 243.567 192.482 240.673 192.482Z" fill="#6A829A"/>
<path d="M240.673 215.362H158.148C155.254 215.362 152.911 213.019 152.911 210.124C152.911 207.23 155.254 204.887 158.148 204.887H240.673C243.567 204.887 245.91 207.23 245.91 210.124C245.91 213.019 243.567 215.362 240.673 215.362Z" fill="#6A829A"/>
<path d="M240.673 204.887H213.073C212.521 207.644 212.073 211.193 211.936 215.362H240.673C243.567 215.362 245.91 213.019 245.91 210.124C245.91 207.23 243.567 204.887 240.673 204.887Z" fill="#516980"/>
<path d="M142.126 117.676C140.334 119.468 138.887 121.57 137.853 123.844H163.765C169.76 123.844 174.653 118.986 174.653 112.956V87.044C172.379 88.0777 170.277 89.5249 168.485 91.3166L142.126 117.676Z" fill="#46C483"/>
<path d="M304.659 243.892C301.248 247.304 295.735 247.304 292.324 243.892L265.792 217.36L278.127 205.025L304.659 231.557C308.071 234.934 308.071 240.481 304.659 243.892Z" fill="#6A829A"/>
<path d="M288.189 219.704L280.471 227.422C275.819 232.074 268.307 232.074 263.656 227.422L258.177 221.978L282.71 197.444L288.155 202.923C292.841 207.54 292.841 215.052 288.189 219.704Z" fill="#F4E74D"/>
<path d="M285.088 188.623C285.088 208.333 269.1 224.321 249.39 224.321C229.681 224.321 213.693 208.333 213.693 188.623C213.693 168.914 229.681 152.926 249.39 152.926C269.1 152.926 285.088 168.879 285.088 188.623Z" fill="#889CB0"/>
<path d="M265.62 204.853C256.661 213.811 242.12 213.811 233.161 204.853C224.202 195.894 224.202 181.353 233.161 172.394C242.12 163.435 256.661 163.435 265.62 172.394C274.578 181.353 274.544 195.894 265.62 204.853Z" fill="#63E4A1"/>
<path d="M252.526 178.183L254.593 182.352L259.211 183.007C262.105 183.42 263.242 186.969 261.175 189.002L257.832 192.241L258.625 196.824C259.107 199.684 256.109 201.889 253.525 200.545L249.425 198.375L245.324 200.545C242.74 201.889 239.742 199.718 240.225 196.824L241.017 192.241L237.675 189.002C235.573 186.969 236.745 183.42 239.639 183.007L244.222 182.352L246.289 178.183C247.495 175.564 251.251 175.564 252.526 178.183Z" fill="#FFFCDC"/>
<path d="M231.301 170.533C223.341 178.493 221.549 191.001 226.959 200.89C227.648 202.13 229.233 202.613 230.474 201.924C231.714 201.235 232.196 199.65 231.507 198.409C227.166 190.518 228.613 180.56 234.953 174.186C242.913 166.226 255.834 166.226 263.759 174.186C271.719 182.145 271.719 195.067 263.759 202.992C257.04 209.711 246.393 210.848 238.399 205.783C237.193 205.025 235.608 205.369 234.815 206.575C234.023 207.781 234.402 209.366 235.608 210.159C239.777 212.812 244.532 214.121 249.287 214.121C255.903 214.121 262.519 211.572 267.411 206.679C272.235 201.855 274.889 195.446 274.889 188.623C274.889 181.801 272.235 175.392 267.411 170.568C257.488 160.575 241.259 160.575 231.301 170.533Z" fill="black"/>
<path d="M264.482 184.626C263.759 182.387 261.864 180.802 259.555 180.457L256.316 179.975L254.869 177.011C253.835 174.909 251.733 173.6 249.39 173.6C247.047 173.6 244.945 174.909 243.912 177.011L242.464 179.975L239.225 180.457C236.917 180.802 235.022 182.387 234.298 184.626C233.574 186.866 234.16 189.243 235.849 190.897L238.192 193.206L237.64 196.445C237.261 198.754 238.192 201.028 240.052 202.406C241.121 203.199 243.739 204.232 246.496 202.888L249.39 201.372L252.285 202.888C254.352 203.991 256.833 203.784 258.728 202.406C260.623 201.028 261.554 198.754 261.14 196.445L260.589 193.206L262.932 190.897C264.62 189.243 265.206 186.866 264.482 184.626ZM259.348 187.176L256.006 190.415C255.386 191.001 255.11 191.862 255.248 192.689L256.04 197.306C256.109 197.789 255.834 198.099 255.661 198.237C255.489 198.375 255.11 198.547 254.662 198.306L250.562 196.135C250.183 195.928 249.769 195.825 249.356 195.825C248.942 195.825 248.529 195.928 248.15 196.135L244.049 198.306C243.601 198.547 243.257 198.375 243.05 198.237C242.878 198.099 242.602 197.823 242.671 197.306L243.464 192.724C243.601 191.897 243.326 191.035 242.706 190.449L239.363 187.211C238.984 186.866 239.053 186.452 239.122 186.246C239.191 186.039 239.363 185.694 239.88 185.626L244.463 184.971C245.29 184.833 246.048 184.316 246.392 183.558L248.46 179.389C248.701 178.941 249.08 178.872 249.287 178.872C249.494 178.872 249.907 178.941 250.114 179.389L252.181 183.558C252.56 184.316 253.284 184.833 254.111 184.971L258.694 185.626C259.176 185.694 259.383 186.073 259.452 186.246C259.521 186.418 259.693 186.831 259.348 187.176Z" fill="black"/>
<path d="M306.486 229.696L299.629 222.839C298.629 221.84 296.975 221.84 295.976 222.839C294.977 223.838 294.977 225.492 295.976 226.492L302.833 233.348C304.005 234.52 305.934 238.931 302.833 242.032C299.732 245.133 295.287 243.203 294.15 242.032L281.814 229.696C281.987 229.524 290.015 221.495 290.015 221.495C295.666 215.844 295.666 206.679 290.015 201.028L286.569 197.582C289.602 185.04 286.225 171.257 276.439 161.506C273.166 158.232 269.41 155.682 265.447 153.822V102.24C265.447 91.3855 256.626 82.5645 245.772 82.5645H183.405C177.065 82.5645 171.104 85.0455 166.659 89.4904L140.299 115.816C135.854 120.295 133.374 126.256 133.374 132.596V231.901C133.374 242.755 142.195 251.576 153.048 251.576H245.772C256.626 251.576 265.447 242.755 265.447 231.901V231.867C267.48 232.901 272.339 234.83 277.266 232.487L290.463 245.684C292.599 247.82 299.732 252.438 306.451 245.684C308.588 243.548 309.759 240.688 309.759 237.69C309.794 234.692 308.622 231.832 306.486 229.696ZM272.787 212.02C259.865 224.941 238.881 224.941 225.96 212.02C213.038 199.098 213.038 178.114 225.96 165.192C232.403 158.749 240.879 155.51 249.39 155.51C257.901 155.51 266.343 158.749 272.821 165.192C285.708 178.114 285.708 199.098 272.787 212.02ZM211.143 189.898H158.148C156.666 189.898 155.495 188.692 155.495 187.245C155.495 185.763 156.701 184.592 158.148 184.592H211.315C211.143 186.349 211.074 188.141 211.143 189.898ZM219.688 212.778H158.148C156.666 212.778 155.495 211.572 155.495 210.124C155.495 208.677 156.701 207.471 158.148 207.471H216.07C217.104 209.297 218.31 211.089 219.688 212.778ZM217.759 167.019H158.148C156.666 167.019 155.495 165.813 155.495 164.366C155.495 162.918 156.701 161.712 158.148 161.712H222.169C220.515 163.366 219.034 165.158 217.759 167.019ZM245.772 246.408H153.048C145.054 246.408 138.542 239.895 138.542 231.901V132.596C138.542 127.634 140.472 122.983 143.986 119.502L170.311 93.1773C170.863 92.626 171.483 92.1091 172.069 91.6267V112.99C172.069 117.573 168.347 121.294 163.765 121.294H149.81C148.397 121.294 147.225 122.466 147.225 123.879C147.225 125.291 148.397 126.463 149.81 126.463H163.765C171.173 126.463 177.237 120.433 177.237 112.99V88.7668C179.201 88.0777 181.269 87.7331 183.405 87.7331H245.772C253.766 87.7331 260.279 94.2455 260.279 102.24V151.927C249.666 148.791 237.985 150.342 228.475 156.544H158.148C153.841 156.544 150.326 160.058 150.326 164.366C150.326 168.673 153.841 172.187 158.148 172.187H214.795C213.693 174.53 212.831 176.942 212.211 179.423H158.114C153.807 179.423 150.292 182.938 150.292 187.245C150.292 191.552 153.807 195.067 158.114 195.067H211.625C212.039 197.513 212.694 199.96 213.589 202.303H158.114C153.807 202.303 150.292 205.817 150.292 210.124C150.292 214.432 153.807 217.946 158.114 217.946H224.754C231.852 223.907 240.604 226.871 249.356 226.871C252.388 226.871 255.42 226.526 258.384 225.802L260.279 227.698V231.901C260.279 239.895 253.766 246.408 245.772 246.408ZM263.931 224.011C268.48 222.15 272.752 219.359 276.474 215.672C280.16 211.985 282.951 207.712 284.812 203.13C284.812 203.13 294.012 210.228 286.363 217.877L278.644 225.596C270.788 233.452 263.931 224.011 263.931 224.011Z" fill="black"/>
<path d="M158.148 149.308H240.673C244.98 149.308 248.494 145.793 248.494 141.486C248.494 137.179 244.98 133.664 240.673 133.664H158.148C153.841 133.664 150.326 137.179 150.326 141.486C150.326 145.793 153.841 149.308 158.148 149.308ZM158.148 138.833H240.673C242.154 138.833 243.326 140.039 243.326 141.486C243.326 142.933 242.12 144.139 240.673 144.139H158.148C156.667 144.139 155.495 142.933 155.495 141.486C155.495 140.039 156.667 138.833 158.148 138.833Z" fill="black"/>
</g>
<path d="M58.2316 288.392H61.5076C63.8036 288.392 65.3996 287.398 65.3996 285.382C65.3996 283.982 64.5316 283.17 63.3136 282.932V282.862C64.2656 282.554 64.8116 281.658 64.8116 280.636C64.8116 278.83 63.3696 278.116 61.2836 278.116H58.2316V288.392ZM59.5336 282.498V279.152H61.1156C62.7116 279.152 63.5376 279.6 63.5376 280.804C63.5376 281.84 62.8236 282.498 61.0596 282.498H59.5336ZM59.5336 287.356V283.478H61.3256C63.1176 283.478 64.1256 284.066 64.1256 285.34C64.1256 286.726 63.0896 287.356 61.3256 287.356H59.5336ZM69.5327 288.574C70.5827 288.574 71.3387 288.028 72.0527 287.202H72.0947L72.1927 288.392H73.2567V280.79H71.9827V286.18C71.2547 287.09 70.7087 287.468 69.9247 287.468C68.9167 287.468 68.4967 286.866 68.4967 285.452V280.79H67.2227V285.606C67.2227 287.538 67.9367 288.574 69.5327 288.574ZM77.8126 288.574C79.6046 288.574 80.5846 287.552 80.5846 286.32C80.5846 284.878 79.3666 284.43 78.2606 284.01C77.4066 283.688 76.6226 283.422 76.6226 282.694C76.6226 282.106 77.0706 281.602 78.0366 281.602C78.7086 281.602 79.2406 281.882 79.7586 282.274L80.3746 281.448C79.7866 280.986 78.9606 280.594 78.0226 280.594C76.3706 280.594 75.3906 281.546 75.3906 282.75C75.3906 284.038 76.5526 284.556 77.6166 284.948C78.4566 285.27 79.3526 285.606 79.3526 286.39C79.3526 287.048 78.8626 287.58 77.8546 287.58C76.9446 287.58 76.2586 287.216 75.6006 286.684L74.9706 287.524C75.6986 288.126 76.7346 288.574 77.8126 288.574ZM85.3695 288.574C86.2795 288.574 87.1475 288.224 87.8335 287.608L87.2735 286.754C86.7975 287.188 86.1815 287.51 85.4815 287.51C84.0815 287.51 83.1295 286.348 83.1295 284.598C83.1295 282.848 84.1375 281.658 85.5235 281.658C86.1255 281.658 86.5875 281.938 87.0355 282.33L87.6935 281.49C87.1475 281.014 86.4615 280.594 85.4675 280.594C83.5215 280.594 81.7995 282.064 81.7995 284.598C81.7995 287.118 83.3535 288.574 85.3695 288.574ZM91.0961 288.574C92.0341 288.574 92.8881 288.084 93.6161 287.482H93.6581L93.7701 288.392H94.8201V283.716C94.8201 281.84 94.0361 280.594 92.1881 280.594C90.9701 280.594 89.8921 281.14 89.1921 281.588L89.6961 282.47C90.2981 282.064 91.0961 281.658 91.9781 281.658C93.2241 281.658 93.5461 282.596 93.5461 283.576C90.3121 283.94 88.8701 284.766 88.8701 286.418C88.8701 287.79 89.8221 288.574 91.0961 288.574ZM91.4601 287.552C90.7041 287.552 90.1161 287.202 90.1161 286.334C90.1161 285.354 90.9841 284.724 93.5461 284.416V286.544C92.8041 287.202 92.2021 287.552 91.4601 287.552ZM101.723 288.574C102.073 288.574 102.283 288.532 102.465 288.462L102.283 287.482C102.143 287.51 102.087 287.51 102.017 287.51C101.821 287.51 101.653 287.356 101.653 286.964V277.248H100.379V286.88C100.379 287.958 100.771 288.574 101.723 288.574ZM107.326 288.574C109.188 288.574 110.854 287.118 110.854 284.598C110.854 282.064 109.188 280.594 107.326 280.594C105.464 280.594 103.798 282.064 103.798 284.598C103.798 287.118 105.464 288.574 107.326 288.574ZM107.326 287.51C106.01 287.51 105.128 286.348 105.128 284.598C105.128 282.848 106.01 281.658 107.326 281.658C108.642 281.658 109.538 282.848 109.538 284.598C109.538 286.348 108.642 287.51 107.326 287.51ZM114.85 288.574C116.642 288.574 117.622 287.552 117.622 286.32C117.622 284.878 116.404 284.43 115.298 284.01C114.444 283.688 113.66 283.422 113.66 282.694C113.66 282.106 114.108 281.602 115.074 281.602C115.746 281.602 116.278 281.882 116.796 282.274L117.412 281.448C116.824 280.986 115.998 280.594 115.06 280.594C113.408 280.594 112.428 281.546 112.428 282.75C112.428 284.038 113.59 284.556 114.654 284.948C115.494 285.27 116.39 285.606 116.39 286.39C116.39 287.048 115.9 287.58 114.892 287.58C113.982 287.58 113.296 287.216 112.638 286.684L112.008 287.524C112.736 288.126 113.772 288.574 114.85 288.574ZM122.541 291.598H123.815V289.022L123.787 287.692C124.473 288.252 125.201 288.574 125.887 288.574C127.637 288.574 129.191 287.076 129.191 284.472C129.191 282.134 128.127 280.594 126.167 280.594C125.285 280.594 124.431 281.098 123.745 281.658H123.703L123.591 280.79H122.541V291.598ZM125.677 287.51C125.173 287.51 124.501 287.3 123.815 286.712V282.722C124.557 282.036 125.215 281.672 125.859 281.672C127.301 281.672 127.861 282.806 127.861 284.486C127.861 286.376 126.937 287.51 125.677 287.51ZM131.223 288.392H132.497V283.506C133.001 282.204 133.785 281.756 134.415 281.756C134.723 281.756 134.905 281.784 135.157 281.882L135.395 280.762C135.157 280.636 134.919 280.594 134.583 280.594C133.729 280.594 132.959 281.21 132.427 282.176H132.385L132.273 280.79H131.223V288.392ZM139.454 288.574C141.316 288.574 142.982 287.118 142.982 284.598C142.982 282.064 141.316 280.594 139.454 280.594C137.592 280.594 135.926 282.064 135.926 284.598C135.926 287.118 137.592 288.574 139.454 288.574ZM139.454 287.51C138.138 287.51 137.256 286.348 137.256 284.598C137.256 282.848 138.138 281.658 139.454 281.658C140.77 281.658 141.666 282.848 141.666 284.598C141.666 286.348 140.77 287.51 139.454 287.51ZM147.581 288.574C148.491 288.574 149.289 288.084 149.891 287.496H149.933L150.045 288.392H151.081V277.248H149.821V280.174L149.877 281.49C149.205 280.93 148.631 280.594 147.735 280.594C145.999 280.594 144.445 282.134 144.445 284.598C144.445 287.132 145.677 288.574 147.581 288.574ZM147.861 287.51C146.517 287.51 145.761 286.418 145.761 284.584C145.761 282.848 146.727 281.672 147.959 281.672C148.589 281.672 149.163 281.896 149.821 282.47V286.46C149.177 287.16 148.561 287.51 147.861 287.51ZM155.884 288.574C156.934 288.574 157.69 288.028 158.404 287.202H158.446L158.544 288.392H159.608V280.79H158.334V286.18C157.606 287.09 157.06 287.468 156.276 287.468C155.268 287.468 154.848 286.866 154.848 285.452V280.79H153.574V285.606C153.574 287.538 154.288 288.574 155.884 288.574ZM165.172 288.574C166.082 288.574 166.95 288.224 167.636 287.608L167.076 286.754C166.6 287.188 165.984 287.51 165.284 287.51C163.884 287.51 162.932 286.348 162.932 284.598C162.932 282.848 163.94 281.658 165.326 281.658C165.928 281.658 166.39 281.938 166.838 282.33L167.496 281.49C166.95 281.014 166.264 280.594 165.27 280.594C163.324 280.594 161.602 282.064 161.602 284.598C161.602 287.118 163.156 288.574 165.172 288.574ZM171.543 288.574C172.005 288.574 172.509 288.434 172.943 288.294L172.691 287.342C172.439 287.44 172.089 287.538 171.823 287.538C170.941 287.538 170.647 287.006 170.647 286.068V281.826H172.705V280.79H170.647V278.648H169.583L169.429 280.79L168.239 280.86V281.826H169.373V286.04C169.373 287.552 169.919 288.574 171.543 288.574ZM177.175 288.574C179.037 288.574 180.703 287.118 180.703 284.598C180.703 282.064 179.037 280.594 177.175 280.594C175.313 280.594 173.647 282.064 173.647 284.598C173.647 287.118 175.313 288.574 177.175 288.574ZM177.175 287.51C175.859 287.51 174.977 286.348 174.977 284.598C174.977 282.848 175.859 281.658 177.175 281.658C178.491 281.658 179.387 282.848 179.387 284.598C179.387 286.348 178.491 287.51 177.175 287.51ZM184.699 288.574C186.491 288.574 187.471 287.552 187.471 286.32C187.471 284.878 186.253 284.43 185.147 284.01C184.293 283.688 183.509 283.422 183.509 282.694C183.509 282.106 183.957 281.602 184.923 281.602C185.595 281.602 186.127 281.882 186.645 282.274L187.261 281.448C186.673 280.986 185.847 280.594 184.909 280.594C183.257 280.594 182.277 281.546 182.277 282.75C182.277 284.038 183.439 284.556 184.503 284.948C185.343 285.27 186.239 285.606 186.239 286.39C186.239 287.048 185.749 287.58 184.741 287.58C183.831 287.58 183.145 287.216 182.487 286.684L181.857 287.524C182.585 288.126 183.621 288.574 184.699 288.574ZM192.391 291.598H193.665V289.022L193.637 287.692C194.323 288.252 195.051 288.574 195.737 288.574C197.487 288.574 199.041 287.076 199.041 284.472C199.041 282.134 197.977 280.594 196.017 280.594C195.135 280.594 194.281 281.098 193.595 281.658H193.553L193.441 280.79H192.391V291.598ZM195.527 287.51C195.023 287.51 194.351 287.3 193.665 286.712V282.722C194.407 282.036 195.065 281.672 195.709 281.672C197.151 281.672 197.711 282.806 197.711 284.486C197.711 286.376 196.787 287.51 195.527 287.51ZM204.027 288.574C205.889 288.574 207.555 287.118 207.555 284.598C207.555 282.064 205.889 280.594 204.027 280.594C202.165 280.594 200.499 282.064 200.499 284.598C200.499 287.118 202.165 288.574 204.027 288.574ZM204.027 287.51C202.711 287.51 201.829 286.348 201.829 284.598C201.829 282.848 202.711 281.658 204.027 281.658C205.343 281.658 206.239 282.848 206.239 284.598C206.239 286.348 205.343 287.51 204.027 287.51ZM209.563 288.392H210.837V283.506C211.341 282.204 212.125 281.756 212.755 281.756C213.063 281.756 213.245 281.784 213.497 281.882L213.735 280.762C213.497 280.636 213.259 280.594 212.923 280.594C212.069 280.594 211.299 281.21 210.767 282.176H210.725L210.613 280.79H209.563V288.392ZM221.118 288.574C222.028 288.574 222.896 288.224 223.582 287.608L223.022 286.754C222.546 287.188 221.93 287.51 221.23 287.51C219.83 287.51 218.878 286.348 218.878 284.598C218.878 282.848 219.886 281.658 221.272 281.658C221.874 281.658 222.336 281.938 222.784 282.33L223.442 281.49C222.896 281.014 222.21 280.594 221.216 280.594C219.27 280.594 217.548 282.064 217.548 284.598C217.548 287.118 219.102 288.574 221.118 288.574ZM226.844 288.574C227.782 288.574 228.636 288.084 229.364 287.482H229.406L229.518 288.392H230.568V283.716C230.568 281.84 229.784 280.594 227.936 280.594C226.718 280.594 225.64 281.14 224.94 281.588L225.444 282.47C226.046 282.064 226.844 281.658 227.726 281.658C228.972 281.658 229.294 282.596 229.294 283.576C226.06 283.94 224.618 284.766 224.618 286.418C224.618 287.79 225.57 288.574 226.844 288.574ZM227.208 287.552C226.452 287.552 225.864 287.202 225.864 286.334C225.864 285.354 226.732 284.724 229.294 284.416V286.544C228.552 287.202 227.95 287.552 227.208 287.552ZM235.185 288.574C235.647 288.574 236.151 288.434 236.585 288.294L236.333 287.342C236.081 287.44 235.731 287.538 235.465 287.538C234.583 287.538 234.289 287.006 234.289 286.068V281.826H236.347V280.79H234.289V278.648H233.225L233.071 280.79L231.881 280.86V281.826H233.015V286.04C233.015 287.552 233.561 288.574 235.185 288.574ZM240.93 288.574C241.966 288.574 242.778 288.224 243.45 287.79L242.988 286.95C242.428 287.328 241.826 287.552 241.084 287.552C239.642 287.552 238.648 286.516 238.564 284.892H243.688C243.716 284.71 243.744 284.444 243.744 284.164C243.744 281.994 242.652 280.594 240.72 280.594C238.956 280.594 237.29 282.134 237.29 284.598C237.29 287.104 238.914 288.574 240.93 288.574ZM238.55 283.968C238.704 282.484 239.656 281.616 240.734 281.616C241.924 281.616 242.624 282.442 242.624 283.968H238.55ZM248.027 291.892C250.379 291.892 251.877 290.674 251.877 289.26C251.877 288.014 250.981 287.454 249.217 287.454H247.733C246.711 287.454 246.403 287.118 246.403 286.628C246.403 286.208 246.613 285.956 246.893 285.718C247.229 285.886 247.649 285.984 248.027 285.984C249.567 285.984 250.799 284.962 250.799 283.338C250.799 282.68 250.547 282.12 250.183 281.77H251.737V280.79H249.091C248.825 280.692 248.447 280.594 248.027 280.594C246.487 280.594 245.171 281.644 245.171 283.31C245.171 284.22 245.661 284.948 246.165 285.354V285.41C245.773 285.69 245.311 286.194 245.311 286.824C245.311 287.426 245.605 287.832 246.011 288.07V288.126C245.297 288.588 244.891 289.204 244.891 289.848C244.891 291.164 246.165 291.892 248.027 291.892ZM248.027 285.116C247.145 285.116 246.403 284.416 246.403 283.31C246.403 282.19 247.131 281.532 248.027 281.532C248.923 281.532 249.651 282.204 249.651 283.31C249.651 284.416 248.895 285.116 248.027 285.116ZM248.209 291.024C246.837 291.024 246.011 290.492 246.011 289.68C246.011 289.232 246.235 288.784 246.781 288.392C247.117 288.476 247.481 288.518 247.761 288.518H249.077C250.085 288.518 250.631 288.756 250.631 289.456C250.631 290.254 249.665 291.024 248.209 291.024ZM256.103 288.574C257.965 288.574 259.631 287.118 259.631 284.598C259.631 282.064 257.965 280.594 256.103 280.594C254.241 280.594 252.575 282.064 252.575 284.598C252.575 287.118 254.241 288.574 256.103 288.574ZM256.103 287.51C254.787 287.51 253.905 286.348 253.905 284.598C253.905 282.848 254.787 281.658 256.103 281.658C257.419 281.658 258.315 282.848 258.315 284.598C258.315 286.348 257.419 287.51 256.103 287.51ZM261.639 288.392H262.913V283.506C263.417 282.204 264.201 281.756 264.831 281.756C265.139 281.756 265.321 281.784 265.573 281.882L265.811 280.762C265.573 280.636 265.335 280.594 264.999 280.594C264.145 280.594 263.375 281.21 262.843 282.176H262.801L262.689 280.79H261.639V288.392ZM267.067 288.392H268.341V280.79H267.067V288.392ZM267.711 279.222C268.215 279.222 268.565 278.886 268.565 278.368C268.565 277.878 268.215 277.542 267.711 277.542C267.207 277.542 266.857 277.878 266.857 278.368C266.857 278.886 267.207 279.222 267.711 279.222ZM272.672 288.574C273.61 288.574 274.464 288.084 275.192 287.482H275.234L275.346 288.392H276.396V283.716C276.396 281.84 275.612 280.594 273.764 280.594C272.546 280.594 271.468 281.14 270.768 281.588L271.272 282.47C271.874 282.064 272.672 281.658 273.554 281.658C274.8 281.658 275.122 282.596 275.122 283.576C271.888 283.94 270.446 284.766 270.446 286.418C270.446 287.79 271.398 288.574 272.672 288.574ZM273.036 287.552C272.28 287.552 271.692 287.202 271.692 286.334C271.692 285.354 272.56 284.724 275.122 284.416V286.544C274.38 287.202 273.778 287.552 273.036 287.552ZM280.813 288.574C282.605 288.574 283.585 287.552 283.585 286.32C283.585 284.878 282.367 284.43 281.261 284.01C280.407 283.688 279.623 283.422 279.623 282.694C279.623 282.106 280.071 281.602 281.037 281.602C281.709 281.602 282.241 281.882 282.759 282.274L283.375 281.448C282.787 280.986 281.961 280.594 281.023 280.594C279.371 280.594 278.391 281.546 278.391 282.75C278.391 284.038 279.553 284.556 280.617 284.948C281.457 285.27 282.353 285.606 282.353 286.39C282.353 287.048 281.863 287.58 280.855 287.58C279.945 287.58 279.259 287.216 278.601 286.684L277.971 287.524C278.699 288.126 279.735 288.574 280.813 288.574ZM285.135 291.052C286.395 290.52 287.179 289.47 287.179 288.126C287.179 287.188 286.773 286.614 286.101 286.614C285.583 286.614 285.135 286.964 285.135 287.51C285.135 288.098 285.583 288.406 286.073 288.406C286.129 288.406 286.171 288.406 286.227 288.392C286.227 289.218 285.709 289.904 284.827 290.296L285.135 291.052ZM292.401 291.598H293.675V289.022L293.647 287.692C294.333 288.252 295.061 288.574 295.747 288.574C297.497 288.574 299.051 287.076 299.051 284.472C299.051 282.134 297.987 280.594 296.027 280.594C295.145 280.594 294.291 281.098 293.605 281.658H293.563L293.451 280.79H292.401V291.598ZM295.537 287.51C295.033 287.51 294.361 287.3 293.675 286.712V282.722C294.417 282.036 295.075 281.672 295.719 281.672C297.161 281.672 297.721 282.806 297.721 284.486C297.721 286.376 296.797 287.51 295.537 287.51ZM302.614 288.574C303.552 288.574 304.406 288.084 305.134 287.482H305.176L305.288 288.392H306.338V283.716C306.338 281.84 305.554 280.594 303.706 280.594C302.488 280.594 301.41 281.14 300.71 281.588L301.214 282.47C301.816 282.064 302.614 281.658 303.496 281.658C304.742 281.658 305.064 282.596 305.064 283.576C301.83 283.94 300.388 284.766 300.388 286.418C300.388 287.79 301.34 288.574 302.614 288.574ZM302.978 287.552C302.222 287.552 301.634 287.202 301.634 286.334C301.634 285.354 302.502 284.724 305.064 284.416V286.544C304.322 287.202 303.72 287.552 302.978 287.552ZM310.11 288.574C310.46 288.574 310.67 288.532 310.852 288.462L310.67 287.482C310.53 287.51 310.474 287.51 310.404 287.51C310.208 287.51 310.04 287.356 310.04 286.964V277.248H308.766V286.88C308.766 287.958 309.158 288.574 310.11 288.574ZM314.508 288.574C315.446 288.574 316.3 288.084 317.028 287.482H317.07L317.182 288.392H318.232V283.716C318.232 281.84 317.448 280.594 315.6 280.594C314.382 280.594 313.304 281.14 312.604 281.588L313.108 282.47C313.71 282.064 314.508 281.658 315.39 281.658C316.636 281.658 316.958 282.596 316.958 283.576C313.724 283.94 312.282 284.766 312.282 286.418C312.282 287.79 313.234 288.574 314.508 288.574ZM314.872 287.552C314.116 287.552 313.528 287.202 313.528 286.334C313.528 285.354 314.396 284.724 316.958 284.416V286.544C316.216 287.202 315.614 287.552 314.872 287.552ZM324.007 288.574C325.757 288.574 327.311 287.076 327.311 284.458C327.311 282.134 326.247 280.594 324.273 280.594C323.433 280.594 322.579 281.07 321.893 281.672L321.935 280.3V277.248H320.661V288.392H321.683L321.795 287.608H321.851C322.509 288.21 323.307 288.574 324.007 288.574ZM323.797 287.51C323.293 287.51 322.607 287.3 321.935 286.712V282.722C322.663 282.036 323.335 281.672 323.979 281.672C325.421 281.672 325.981 282.806 325.981 284.486C325.981 286.376 325.057 287.51 323.797 287.51ZM329.315 288.392H330.589V283.506C331.093 282.204 331.877 281.756 332.507 281.756C332.815 281.756 332.997 281.784 333.249 281.882L333.487 280.762C333.249 280.636 333.011 280.594 332.675 280.594C331.821 280.594 331.051 281.21 330.519 282.176H330.477L330.365 280.79H329.315V288.392ZM336.11 288.574C337.048 288.574 337.902 288.084 338.63 287.482H338.672L338.784 288.392H339.834V283.716C339.834 281.84 339.05 280.594 337.202 280.594C335.984 280.594 334.906 281.14 334.206 281.588L334.71 282.47C335.312 282.064 336.11 281.658 336.992 281.658C338.238 281.658 338.56 282.596 338.56 283.576C335.326 283.94 333.884 284.766 333.884 286.418C333.884 287.79 334.836 288.574 336.11 288.574ZM336.474 287.552C335.718 287.552 335.13 287.202 335.13 286.334C335.13 285.354 335.998 284.724 338.56 284.416V286.544C337.818 287.202 337.216 287.552 336.474 287.552ZM344.25 288.574C346.042 288.574 347.022 287.552 347.022 286.32C347.022 284.878 345.804 284.43 344.698 284.01C343.844 283.688 343.06 283.422 343.06 282.694C343.06 282.106 343.508 281.602 344.474 281.602C345.146 281.602 345.678 281.882 346.196 282.274L346.812 281.448C346.224 280.986 345.398 280.594 344.46 280.594C342.808 280.594 341.828 281.546 341.828 282.75C341.828 284.038 342.99 284.556 344.054 284.948C344.894 285.27 345.79 285.606 345.79 286.39C345.79 287.048 345.3 287.58 344.292 287.58C343.382 287.58 342.696 287.216 342.038 286.684L341.408 287.524C342.136 288.126 343.172 288.574 344.25 288.574ZM138.799 308.574C139.709 308.574 140.577 308.224 141.263 307.608L140.703 306.754C140.227 307.188 139.611 307.51 138.911 307.51C137.511 307.51 136.559 306.348 136.559 304.598C136.559 302.848 137.567 301.658 138.953 301.658C139.555 301.658 140.017 301.938 140.465 302.33L141.123 301.49C140.577 301.014 139.891 300.594 138.897 300.594C136.951 300.594 135.229 302.064 135.229 304.598C135.229 307.118 136.783 308.574 138.799 308.574ZM144.27 308.574C144.62 308.574 144.83 308.532 145.012 308.462L144.83 307.482C144.69 307.51 144.634 307.51 144.564 307.51C144.368 307.51 144.2 307.356 144.2 306.964V297.248H142.926V306.88C142.926 307.958 143.318 308.574 144.27 308.574ZM148.668 308.574C149.606 308.574 150.46 308.084 151.188 307.482H151.23L151.342 308.392H152.392V303.716C152.392 301.84 151.608 300.594 149.76 300.594C148.542 300.594 147.464 301.14 146.764 301.588L147.268 302.47C147.87 302.064 148.668 301.658 149.55 301.658C150.796 301.658 151.118 302.596 151.118 303.576C147.884 303.94 146.442 304.766 146.442 306.418C146.442 307.79 147.394 308.574 148.668 308.574ZM149.032 307.552C148.276 307.552 147.688 307.202 147.688 306.334C147.688 305.354 148.556 304.724 151.118 304.416V306.544C150.376 307.202 149.774 307.552 149.032 307.552ZM156.459 308.392H157.943L160.645 300.79H159.385L157.943 305.116C157.719 305.858 157.481 306.642 157.243 307.356H157.187C156.949 306.642 156.711 305.858 156.473 305.116L155.045 300.79H153.715L156.459 308.392ZM165.133 308.574C166.169 308.574 166.981 308.224 167.653 307.79L167.191 306.95C166.631 307.328 166.029 307.552 165.287 307.552C163.845 307.552 162.851 306.516 162.767 304.892H167.891C167.919 304.71 167.947 304.444 167.947 304.164C167.947 301.994 166.855 300.594 164.923 300.594C163.159 300.594 161.493 302.134 161.493 304.598C161.493 307.104 163.117 308.574 165.133 308.574ZM162.753 303.968C162.907 302.484 163.859 301.616 164.937 301.616C166.127 301.616 166.827 302.442 166.827 303.968H162.753ZM171.807 308.574C173.599 308.574 174.579 307.552 174.579 306.32C174.579 304.878 173.361 304.43 172.255 304.01C171.401 303.688 170.617 303.422 170.617 302.694C170.617 302.106 171.065 301.602 172.031 301.602C172.703 301.602 173.235 301.882 173.753 302.274L174.369 301.448C173.781 300.986 172.955 300.594 172.017 300.594C170.365 300.594 169.385 301.546 169.385 302.75C169.385 304.038 170.547 304.556 171.611 304.948C172.451 305.27 173.347 305.606 173.347 306.39C173.347 307.048 172.857 307.58 171.849 307.58C170.939 307.58 170.253 307.216 169.595 306.684L168.965 307.524C169.693 308.126 170.729 308.574 171.807 308.574ZM176.13 311.052C177.39 310.52 178.174 309.47 178.174 308.126C178.174 307.188 177.768 306.614 177.096 306.614C176.578 306.614 176.13 306.964 176.13 307.51C176.13 308.098 176.578 308.406 177.068 308.406C177.124 308.406 177.166 308.406 177.222 308.392C177.222 309.218 176.704 309.904 175.822 310.296L176.13 311.052ZM186.461 308.574C187.497 308.574 188.309 308.224 188.981 307.79L188.519 306.95C187.959 307.328 187.357 307.552 186.615 307.552C185.173 307.552 184.179 306.516 184.095 304.892H189.219C189.247 304.71 189.275 304.444 189.275 304.164C189.275 301.994 188.183 300.594 186.251 300.594C184.487 300.594 182.821 302.134 182.821 304.598C182.821 307.104 184.445 308.574 186.461 308.574ZM184.081 303.968C184.235 302.484 185.187 301.616 186.265 301.616C187.455 301.616 188.155 302.442 188.155 303.968H184.081ZM193.391 308.574C193.853 308.574 194.357 308.434 194.791 308.294L194.539 307.342C194.287 307.44 193.937 307.538 193.671 307.538C192.789 307.538 192.495 307.006 192.495 306.068V301.826H194.553V300.79H192.495V298.648H191.431L191.277 300.79L190.087 300.86V301.826H191.221V306.04C191.221 307.552 191.767 308.574 193.391 308.574ZM196.274 308.392H197.548V300.79H196.274V308.392ZM196.918 299.222C197.422 299.222 197.772 298.886 197.772 298.368C197.772 297.878 197.422 297.542 196.918 297.542C196.414 297.542 196.064 297.878 196.064 298.368C196.064 298.886 196.414 299.222 196.918 299.222ZM204.959 311.598H206.219V300.79H205.211L205.085 301.518H205.043C204.385 300.916 203.755 300.594 202.873 300.594C201.137 300.594 199.583 302.134 199.583 304.598C199.583 307.132 200.815 308.574 202.719 308.574C203.601 308.574 204.399 308.112 205.015 307.51L204.959 308.896V311.598ZM202.999 307.51C201.655 307.51 200.899 306.418 200.899 304.584C200.899 302.848 201.865 301.672 203.097 301.672C203.727 301.672 204.301 301.896 204.959 302.47V306.46C204.315 307.16 203.699 307.51 202.999 307.51ZM211.023 308.574C212.073 308.574 212.829 308.028 213.543 307.202H213.585L213.683 308.392H214.747V300.79H213.473V306.18C212.745 307.09 212.199 307.468 211.415 307.468C210.407 307.468 209.987 306.866 209.987 305.452V300.79H208.713V305.606C208.713 307.538 209.427 308.574 211.023 308.574ZM220.381 308.574C221.417 308.574 222.229 308.224 222.901 307.79L222.439 306.95C221.879 307.328 221.277 307.552 220.535 307.552C219.093 307.552 218.099 306.516 218.015 304.892H223.139C223.167 304.71 223.195 304.444 223.195 304.164C223.195 301.994 222.103 300.594 220.171 300.594C218.407 300.594 216.741 302.134 216.741 304.598C216.741 307.104 218.365 308.574 220.381 308.574ZM218.001 303.968C218.155 302.484 219.107 301.616 220.185 301.616C221.375 301.616 222.075 302.442 222.075 303.968H218.001ZM227.31 308.574C227.772 308.574 228.276 308.434 228.71 308.294L228.458 307.342C228.206 307.44 227.856 307.538 227.59 307.538C226.708 307.538 226.414 307.006 226.414 306.068V301.826H228.472V300.79H226.414V298.648H225.35L225.196 300.79L224.006 300.86V301.826H225.14V306.04C225.14 307.552 225.686 308.574 227.31 308.574ZM231.602 308.574C232.54 308.574 233.394 308.084 234.122 307.482H234.164L234.276 308.392H235.326V303.716C235.326 301.84 234.542 300.594 232.694 300.594C231.476 300.594 230.398 301.14 229.698 301.588L230.202 302.47C230.804 302.064 231.602 301.658 232.484 301.658C233.73 301.658 234.052 302.596 234.052 303.576C230.818 303.94 229.376 304.766 229.376 306.418C229.376 307.79 230.328 308.574 231.602 308.574ZM231.966 307.552C231.21 307.552 230.622 307.202 230.622 306.334C230.622 305.354 231.49 304.724 234.052 304.416V306.544C233.31 307.202 232.708 307.552 231.966 307.552ZM239.742 308.574C241.534 308.574 242.514 307.552 242.514 306.32C242.514 304.878 241.296 304.43 240.19 304.01C239.336 303.688 238.552 303.422 238.552 302.694C238.552 302.106 239 301.602 239.966 301.602C240.638 301.602 241.17 301.882 241.688 302.274L242.304 301.448C241.716 300.986 240.89 300.594 239.952 300.594C238.3 300.594 237.32 301.546 237.32 302.75C237.32 304.038 238.482 304.556 239.546 304.948C240.386 305.27 241.282 305.606 241.282 306.39C241.282 307.048 240.792 307.58 239.784 307.58C238.874 307.58 238.188 307.216 237.53 306.684L236.9 307.524C237.628 308.126 238.664 308.574 239.742 308.574ZM244.065 311.052C245.325 310.52 246.109 309.47 246.109 308.126C246.109 307.188 245.703 306.614 245.031 306.614C244.513 306.614 244.065 306.964 244.065 307.51C244.065 308.098 244.513 308.406 245.003 308.406C245.059 308.406 245.101 308.406 245.157 308.392C245.157 309.218 244.639 309.904 243.757 310.296L244.065 311.052ZM254.396 308.574C255.432 308.574 256.244 308.224 256.916 307.79L256.454 306.95C255.894 307.328 255.292 307.552 254.55 307.552C253.108 307.552 252.114 306.516 252.03 304.892H257.154C257.182 304.71 257.21 304.444 257.21 304.164C257.21 301.994 256.118 300.594 254.186 300.594C252.422 300.594 250.756 302.134 250.756 304.598C250.756 307.104 252.38 308.574 254.396 308.574ZM252.016 303.968C252.17 302.484 253.122 301.616 254.2 301.616C255.39 301.616 256.09 302.442 256.09 303.968H252.016ZM261.326 308.574C261.788 308.574 262.292 308.434 262.726 308.294L262.474 307.342C262.222 307.44 261.872 307.538 261.606 307.538C260.724 307.538 260.43 307.006 260.43 306.068V301.826H262.488V300.79H260.43V298.648H259.366L259.212 300.79L258.022 300.86V301.826H259.156V306.04C259.156 307.552 259.702 308.574 261.326 308.574ZM267 308.574C267.91 308.574 268.778 308.224 269.464 307.608L268.904 306.754C268.428 307.188 267.812 307.51 267.112 307.51C265.712 307.51 264.76 306.348 264.76 304.598C264.76 302.848 265.768 301.658 267.154 301.658C267.756 301.658 268.218 301.938 268.666 302.33L269.324 301.49C268.778 301.014 268.092 300.594 267.098 300.594C265.152 300.594 263.43 302.064 263.43 304.598C263.43 307.118 264.984 308.574 267 308.574Z" fill="#464646"/>
<circle cx="205" cy="205" r="205" fill="#E2E8EC" fill-opacity="0.42"/>
<defs>
<clipPath id="clip0">
<rect width="176.42" height="176.42" fill="white" transform="translate(133.374 82.5645)"/>
</clipPath>
</defs>
</svg>
